<svg version="1.1" xmlns="http://www.w3.org/2000/svg" style="display: block;" viewBox="0 0 2000 1996" preserveAspectRatio="xMidYMid meet">
	<style>
		/* Force all shapes in this inline SVG to render as solid black so the
			 graphic is usable on light-themed menu panels. Using !important here
			 ensures it overrides any presentation attributes in the paths. */
		path, rect, circle, ellipse, polygon, polyline, g { fill: #000000 !important; stroke: #000000 !important; }
	</style>
<path transform="translate(0,0)" fill="rgb(254,254,254)" d="M 733.895 831.306 C 757.5 830.101 786.625 830.587 810.286 831.232 C 852.222 832.375 901.529 850.78 929.906 882.93 C 984.577 944.871 978.498 1038.12 924.514 1098.51 C 915.911 1108.17 905.54 1115.47 895.96 1124 C 902.204 1141.67 911.013 1159.01 919.127 1175.97 C 928.699 1196.05 938.168 1216.19 947.532 1236.37 L 968.922 1283.95 C 972.441 1291.87 975.952 1299.88 979.788 1307.71 C 984.553 1317.44 1005.24 1333.51 1001.99 1344.47 C 993.785 1352.75 932.467 1350.08 921.5 1344.91 C 912.161 1336.5 915.516 1328.59 913.344 1317.34 C 912.842 1314.74 910.503 1307.33 909.471 1305.21 C 899.184 1284.03 841.12 1150.37 833.55 1142.66 C 825.256 1139.62 810.54 1142.21 802.156 1144.63 C 801.207 1153 799.899 1228.51 801.516 1233.24 C 818.651 1283.45 806.016 1270.49 758.017 1272.91 C 750.809 1273.27 730.199 1274.35 724.141 1266.3 C 722.056 1256.01 731.555 1235.91 731.323 1222.47 C 730.772 1190.58 730.978 1158.27 730.976 1126.36 L 731.008 904.546 C 731.027 882.943 732.152 869.629 724.701 848.985 C 721.687 840.638 724.096 833.342 733.895 831.306 z M 868.836 1050.79 C 887.381 1033.37 903.833 1002.85 899.136 976.767 C 891.339 933.467 854.743 900.498 810.419 899.835 C 809.088 899.805 807.758 899.83 806.43 899.91 C 805.175 901.326 802.21 904.587 802.132 906.437 C 800.032 956.218 801.453 1006.28 801.318 1056.13 C 801.277 1071.37 803.428 1073.83 819.399 1072.78 C 840.192 1071.28 852.998 1063.68 868.836 1050.79 z"/>
<path transform="translate(0,0)" fill="rgb(254,254,254)" d="M 552.026 679.476 C 592.312 679.154 646.517 691.907 686.085 701.542 C 725.254 712.143 759.679 721.188 800.442 721.181 C 825.917 721.177 850.391 679.607 860.553 709.516 C 866.394 729.333 874.426 749.929 878.516 770.039 C 881.765 786.016 851.639 779.049 845.489 780.697 C 810.135 790.17 780.183 790.988 744.02 784.832 C 716.687 780.178 690.387 771.173 663.112 768.137 C 660.493 767.851 657.087 768.897 655.209 770.926 C 651.474 782.452 652.938 859.556 652.939 878.128 L 652.968 1063.15 L 652.921 1170.61 C 652.88 1190.26 652.665 1209.89 653.091 1229.53 C 653.347 1241.33 664.962 1257.44 658.536 1267.93 C 649.791 1274.77 609.904 1272.48 596.75 1272.46 C 576.46 1272.29 572.297 1267.42 579.286 1247.23 C 584.935 1230.91 583.382 1211.18 583.391 1193.88 L 583.416 1122.61 L 583.432 931.731 L 583.395 812.877 C 583.373 799.517 585.195 752.034 580.403 750.787 C 526.491 736.959 430.39 769.283 437.073 838.465 C 442.903 859.576 456.118 875.87 422.685 876.484 C 404.555 876.817 385.433 876.319 367.15 875.965 C 362.416 872.22 359.087 869.951 359.228 863.544 C 359.398 855.816 364.292 848.472 365.438 840.992 C 366.939 831.187 367.831 821.275 369.567 811.5 C 383.59 724.253 471.675 680.84 552.026 679.476 z"/>
<path transform="translate(0,0)" fill="rgb(254,254,254)" d="M 1303.68 831.459 C 1317.91 830.558 1332.02 831.395 1345.9 830.922 C 1394.4 829.06 1445.3 836.359 1484.28 868.116 C 1548.39 920.344 1556.4 1025.18 1503.27 1087.93 C 1470.07 1127.15 1427.02 1138.19 1378.24 1142.56 C 1375.26 1143.05 1375.85 1143.02 1372.98 1144.27 C 1369.58 1148.07 1370.23 1222.67 1371.28 1232.75 C 1372.28 1242.35 1381.4 1255.82 1379.02 1265.13 C 1378.32 1267.9 1377.29 1269.22 1374.72 1270.44 C 1367.11 1274.07 1307.36 1274.17 1299.33 1270.71 C 1296.35 1269.42 1294.11 1267.56 1293.07 1264.4 C 1290.19 1255.68 1301.49 1238.62 1302.05 1227.98 C 1303.12 1207.59 1302.06 1186.52 1302.08 1166.06 L 1302.12 1034.43 L 1302.13 929.792 C 1302.13 901.089 1305.56 873.424 1294.03 847.346 C 1290.21 838.711 1294.48 833.093 1303.68 831.459 z M 1370.65 1070.3 C 1395.17 1077.42 1420.25 1067.27 1438.35 1050.48 C 1482.48 1008.68 1478.35 954.524 1431.32 917.251 C 1416.21 905.278 1401.49 902.506 1383.03 899.192 C 1379.52 899.881 1374.9 900.718 1372.73 903.956 C 1367.37 911.943 1373.07 1050.23 1370.65 1070.3 z"/>
<path transform="translate(0,0)" fill="rgb(254,254,254)" d="M 956.954 346.312 C 965.81 345.972 974.672 345.826 983.534 345.873 C 1069.43 346.888 1125.4 429.994 1094.71 510.003 C 1086.09 532.468 1073.13 546.669 1056.1 562.988 C 1077.06 576.126 1093.46 593.18 1100.1 617.625 C 1106.71 642.836 1103.06 669.638 1089.96 692.168 C 1077.27 713.921 1048.32 738.169 1024.51 744.344 C 1014.92 746.79 1005.16 748.511 995.307 749.494 C 983.895 750.604 935.886 752.194 927.517 747.271 C 924.993 742.331 929.552 724.614 930.132 718.049 C 931.002 708.193 930.999 698.793 930.995 688.92 L 930.913 472.936 C 930.963 463.822 924.536 448.799 926.738 441.99 C 928.749 435.774 963.604 437.924 968.985 437.995 C 973.982 437.998 978.027 438.03 982.002 441.125 C 985.084 446.896 979.029 461.074 978.615 471.505 C 977.552 498.252 978.138 524.532 978.374 551.239 C 987.848 548.338 996.996 544.465 1005.67 539.681 C 1026.6 527.903 1042.09 510.345 1048.43 486.947 C 1054.05 465.888 1050.95 443.45 1039.81 424.713 C 1003.37 363.332 887.653 396.013 874.755 462.212 C 869.014 491.679 874.871 519.84 899.83 538.926 C 904.947 542.839 880.225 555.268 878.38 556.469 C 844.32 576.368 849.856 571.13 838.427 538.966 C 836.476 533.478 831.073 522.704 828.83 516.189 C 827.034 511.017 825.615 505.723 824.583 500.347 C 807.952 413.207 879.294 360.456 956.954 346.312 z M 977.646 598.409 C 979.389 630.326 977.862 670.463 978.038 703.177 C 999.713 703.529 1010.68 700.894 1028.34 687.907 C 1074.15 648.959 1048.57 589.961 988.154 596.484 C 984.755 597.136 981.049 597.93 977.646 598.409 z"/>
<path transform="translate(0,0)" fill="rgb(254,254,254)" d="M 1100.73 831.315 C 1122.46 830.367 1147.28 831.296 1166.98 830.912 C 1203.29 830.204 1193.34 842.816 1187.12 867.434 C 1186.41 870.26 1189.51 882.567 1190.5 886.342 L 1230.47 1033.8 L 1247.24 1096.27 C 1250.4 1108.48 1253.93 1121.32 1256.87 1133.53 C 1259.69 1145.2 1278.11 1165.69 1272.91 1175.95 C 1263.63 1180.4 1211.04 1179.31 1198.03 1178.07 C 1193.37 1177.63 1190.36 1171.8 1188.23 1167.89 C 1190.06 1149.62 1191.73 1131.73 1182.56 1114.3 C 1179.61 1108.68 1176.06 1108.02 1170.21 1106.66 C 1153.35 1104.61 1127.36 1097.63 1112.3 1097.45 C 1096.22 1097.26 1093.21 1147.95 1094.48 1159.8 C 1095.82 1172.34 1087.15 1179.02 1074.34 1178.44 C 1064.36 1177.98 1014.56 1182.25 1008.42 1174.81 C 1006.15 1163.5 1021.24 1149.99 1025.15 1134.92 C 1030.04 1116.15 1035.52 1096.76 1040.42 1077.97 L 1067.48 975.425 L 1087.3 903.108 C 1095.45 873.273 1101.03 870.734 1086.56 842.311 C 1091.23 835.041 1092.58 833.086 1100.73 831.315 z M 1146.26 1032.25 L 1157.11 1030.5 C 1157.16 1029.6 1157.62 1021.06 1157.22 1019.48 C 1153.74 1005.74 1150.69 986.076 1143.27 974.212 C 1142.84 973.517 1139.69 972.516 1139 972.292 C 1136.58 976.431 1135.18 981.651 1134.1 986.478 C 1131.36 998.804 1125.91 1012.61 1126.15 1025.19 C 1126.26 1031.26 1141.78 1031.94 1146.26 1032.25 z"/>
<path transform="translate(0,0)" fill="rgb(254,254,254)" d="M 1513.93 448.391 C 1550.02 447.045 1582.96 446.743 1615.16 462.887 C 1667.29 489.017 1683.27 554.724 1657.02 604.814 C 1645.79 626.233 1639.09 633.42 1620.49 648.27 C 1628.03 669.809 1641.28 694.133 1650.67 715.224 C 1659.28 734.553 1668.18 754.154 1677.41 773.206 C 1680.78 780.166 1693.8 792.534 1694.5 798.59 C 1687.93 805.479 1644.64 804.148 1636.08 798.698 C 1633.41 790.287 1633.3 783.142 1629.44 773.48 C 1623.65 758.958 1617.02 745.17 1610.49 730.992 L 1577.74 659.846 C 1572.8 659.918 1564.5 659.242 1560.41 660.913 C 1551.56 669.394 1556.75 708.884 1556.51 721.84 C 1556.4 727.382 1561.75 739.877 1560.81 746.047 C 1553.72 751.864 1536.8 750.234 1529.1 750.413 C 1490.34 751.312 1504.71 744.339 1508.03 718.527 C 1508.95 711.329 1507.97 684.394 1507.98 675.856 L 1508.02 586.836 L 1508.04 521.883 C 1508.04 506.345 1508.89 484.952 1505.87 469.821 C 1504.48 462.864 1500.95 457.817 1504.61 451.084 C 1507.6 448.472 1509.73 448.791 1513.93 448.391 z M 1603.37 596.535 C 1612.98 588.392 1622.36 570.622 1622.62 558.121 C 1623.36 523.093 1592.41 495.745 1559.11 494.791 C 1554.9 502.404 1554.65 599.227 1556.83 610.992 C 1567.95 621.489 1594.34 605.088 1603.37 596.535 z"/>
<path transform="translate(0,0)" fill="rgb(254,254,254)" d="M 1134.77 448.428 C 1163.32 447.089 1196.54 448.564 1225.38 447.967 C 1236.7 447.733 1281.78 447.186 1290.77 449.634 C 1296.88 455.288 1295.65 495.108 1292.06 500.184 C 1287.52 502.417 1280.52 499.18 1275.99 497.622 C 1260.43 492.26 1193.09 494.247 1174.29 496.069 C 1173.9 502.096 1173.51 516.569 1174.51 522.117 C 1180.98 526.337 1222.04 524.794 1232.47 524.655 C 1238.06 524.581 1255.34 518.587 1262.38 519.97 C 1265.28 527.99 1266.13 567.156 1263.33 574.915 C 1253.66 583.41 1245.29 571.819 1238.09 572.238 C 1221.05 573.228 1191.41 569.526 1175.76 573.402 C 1172.86 576.526 1173.88 596.316 1173.9 601.594 C 1173.97 613.234 1174.41 626.643 1173.31 638.106 C 1194.03 638.687 1214.75 638.955 1235.47 638.91 C 1245.04 638.911 1254.61 638.94 1264.19 638.648 C 1271.48 638.426 1287.53 631.704 1292.84 635.557 C 1295.38 642.324 1295.46 683.101 1291.5 684.473 C 1285.1 686.685 1222.99 686.699 1216.38 686.036 C 1193.64 683.76 1141.94 690.253 1123.16 684.435 C 1116.41 677.359 1124.87 666.748 1125.1 659.819 C 1127.1 600.429 1125.8 540.472 1125.69 480.988 C 1125.68 473.249 1119.09 455.678 1123.2 450.49 C 1127.37 448.296 1130.04 448.614 1134.77 448.428 z"/>
<path transform="translate(0,0)" fill="rgb(254,254,254)" d="M 1371.24 448.459 C 1385.9 448.032 1422.13 445.203 1433.08 452.541 C 1437.2 460.305 1429.84 462.851 1430.16 473.516 C 1430.42 482.235 1431.59 485.257 1433.83 493.413 L 1464.9 606.585 C 1468.89 621.367 1473.1 636.393 1476.38 651.382 C 1477.56 656.759 1493.62 682.432 1488.23 684.973 C 1482.27 687.784 1467.39 685.461 1459.85 686.056 C 1454.6 686.469 1443.71 686.771 1438.13 685.677 C 1420.6 677.922 1442.04 642.083 1417.24 637.59 C 1361.76 621.926 1370.8 633.112 1365.65 679.881 C 1365.01 681.676 1362.56 684.724 1360.6 684.957 C 1351.66 686.023 1315.14 687.821 1308.25 684.403 C 1306.93 677.303 1320.4 654.794 1322.36 644.776 C 1323.69 637.947 1327.5 624.439 1329.37 617.572 C 1336.84 590.63 1344.01 563.605 1350.87 536.502 C 1356.64 514.259 1369.86 483.148 1363.48 460.692 C 1361.14 452.463 1363.51 449.773 1371.24 448.459 z M 1403.14 586.499 C 1407.27 584.268 1406.9 585.219 1409.13 581.754 C 1410.49 571.953 1403.76 556.119 1400.29 546.968 C 1398.61 545.679 1399.15 545.835 1397.23 545.187 C 1393.72 554.087 1387.82 572.63 1389.14 582.098 C 1392.15 585.82 1394.3 585.613 1399.18 586.119 C 1400.5 586.256 1401.82 586.383 1403.14 586.499 z"/>
<path transform="translate(0,0)" fill="rgb(254,254,254)" d="M 423.546 383.417 C 450.557 380.308 489.081 393.271 515.797 398.593 C 524.706 400.368 541.237 401.552 549.493 397.814 C 551.404 396.949 556.254 393.113 558.368 391.582 C 567.377 390.675 570.578 412.621 573.466 419.333 C 574.432 421.579 573.067 423.925 571.891 425.751 C 566.708 428.532 562.532 427.293 557.053 428.482 C 526.52 435.108 505.771 427.342 476.075 419.893 L 475.963 552.529 C 475.955 579.674 474.71 615.262 478.515 641.404 C 472.943 641.754 466.872 641.845 461.25 642.028 C 456.034 642.127 446.753 642.836 442.511 640.426 C 442.088 635.091 443.281 621.964 443.496 615.962 C 443.921 604.113 443.89 592.876 443.897 581.03 L 444.008 413.285 C 423.727 412.856 397.467 414.011 385.424 433.675 C 378.399 445.144 381.107 453.586 384.075 465.681 L 382.954 467.049 C 376.536 468.851 355.513 469.569 348.94 466.469 C 344.12 460.036 349.708 451.269 350.419 443.284 C 353.69 406.577 389.637 385.96 423.546 383.417 z"/>
<path transform="translate(0,0)" fill="rgb(254,254,254)" d="M 1015.61 1219.19 C 1061.27 1217.42 1115.53 1218.99 1162.08 1218.91 L 1225.66 1218.82 C 1233.67 1218.81 1265.51 1217.26 1271.6 1222.24 C 1275.96 1225.81 1275.19 1258.26 1273.88 1264.87 C 1273.17 1268.48 1271.36 1269.73 1268.4 1271.65 C 1259.24 1273.27 1236.33 1272.67 1225.83 1272.67 L 1147.35 1272.68 L 1065.12 1272.76 C 1049.86 1272.8 1033.76 1273.19 1018.53 1272.22 C 1015.79 1272.23 1012.83 1271.34 1011.25 1268.73 C 1005.07 1258.53 1008.22 1243.23 1007.91 1231.79 C 1007.74 1225.5 1010.96 1222.45 1015.61 1219.19 z"/>
<path transform="translate(0,0)" fill="rgb(254,254,254)" d="M 510.351 446.899 C 519.432 447.64 535.137 446.722 542.574 448.867 C 543.831 450.392 544.587 451.211 544.144 453.51 C 540.172 474.132 542.148 494.535 541.737 515.591 C 559.165 516.307 579.991 515.744 597.669 515.724 C 597.273 509.198 596.392 450.837 596.927 449.567 C 603.083 447.218 624.17 447.32 630.257 449.242 C 634.705 453.718 629.62 467.274 629.692 474.912 C 630.16 524.672 629.154 574.501 630.127 624.245 C 630.233 629.671 634.666 635.431 631.096 639.97 C 625.337 641.424 612.96 641.331 606.526 641.534 C 602.326 641.36 600.951 641.538 597.097 640.127 C 595.178 636.802 597.224 618.264 597.257 612.782 C 597.39 590.415 597.166 568.049 597.321 545.684 C 578.729 545.836 560.135 545.826 541.543 545.654 C 542.755 575.756 538.72 612.116 545.793 640.271 C 538.179 640.99 515.597 642.621 509.538 639.921 C 509.192 635.21 509.528 631.555 509.719 626.881 C 511.532 582.348 510.243 537.622 510.632 493.048 C 510.752 479.231 509.533 465.547 508.587 451.798 C 508.489 450.376 509.739 448.092 510.351 446.899 z"/>
<path transform="translate(0,0)" fill="rgb(254,254,254)" d="M 1132.14 1350.02 C 1151.79 1349.99 1209.2 1343.05 1208.71 1372.3 C 1208.28 1398 1216.21 1481.92 1202.72 1500.54 C 1190.37 1509.36 1148.84 1506.28 1131.75 1506.16 C 1129.7 1482.37 1131.93 1445.97 1131.12 1420.77 C 1130.78 1410.32 1130.66 1356.53 1132.14 1350.02 z M 1158.32 1479.96 C 1166.47 1479.93 1176.46 1480.28 1184.22 1478.43 C 1182.51 1467.93 1183.77 1459.32 1183.42 1449.11 C 1182.65 1427.14 1184.84 1398.55 1182.93 1377.17 C 1174.81 1377.08 1166.53 1377.08 1158.43 1376.88 C 1159.57 1397.14 1158.87 1419.45 1159.04 1439.98 C 1159.12 1449.78 1159.51 1470.97 1158.32 1479.96 z"/>
<path transform="translate(0,0)" fill="rgb(254,254,254)" d="M 650.246 448.2 C 666.181 447.213 689.058 448.038 705.465 447.873 C 720.685 447.72 747.736 447.14 761.728 449.009 C 762.337 458.905 761.942 472.062 761.406 481.848 C 731.973 477.482 712.446 478.458 683.093 479.03 C 683.855 486.255 683.921 490.591 683.862 497.892 C 698.734 496.465 715.278 499.347 729.486 495.418 C 731.406 494.887 738.439 491.045 739.793 494.113 C 743.961 503.555 741.856 521.74 741.484 531.903 C 718.543 526.313 707.217 527.748 683.274 528.129 C 683.318 531.868 683.726 536.483 683.953 540.29 C 683.997 549.47 684.538 561.665 682.768 570.329 C 701.678 570.587 721.487 571.255 740.368 570.199 C 747.782 569.784 754.94 564.626 760.487 567.613 C 763.406 574.113 761.921 592.052 761.636 599.922 C 759.513 600.068 757.387 600.177 755.26 600.251 C 743.005 600.586 653.71 601.66 650.533 598.642 C 649.82 589.526 653.596 580.415 653.653 571.534 C 653.867 537.9 654.035 504.143 653.494 470.518 C 653.378 463.316 648.969 455.982 650.246 448.2 z"/>
<path transform="translate(0,0)" fill="rgb(254,254,254)" d="M 816.504 1370.79 C 873.509 1371.74 901.693 1357.77 895.542 1433.37 C 893.759 1455.28 900.881 1483.22 887.535 1502.11 C 873.323 1512.18 834.619 1509.16 816.344 1508.96 C 814.641 1487.53 815.869 1455.91 815.648 1433.83 C 815.491 1418.18 814.905 1385.09 816.504 1370.79 z M 842.662 1482.81 C 851.086 1482.13 857.693 1481.99 866.17 1481.97 C 869.927 1475.86 868.286 1410.19 867.869 1398.05 C 859.724 1398.03 851.009 1398.16 842.92 1397.77 C 843.947 1410.04 844.852 1473.04 842.662 1482.81 z"/>
<path transform="translate(0,0)" fill="rgb(254,254,254)" d="M 646.504 1371.3 C 659.357 1370.64 675.722 1369.05 687.564 1374.99 C 693.276 1377.85 695.923 1381.63 697.918 1387.63 C 702.97 1402.83 703.405 1484.69 696.144 1497.97 C 692.713 1504.25 685.259 1506.06 678.921 1507.95 C 659.243 1510.69 623.712 1513.07 622.677 1485.45 C 621.354 1454.31 620.713 1421.88 622.821 1390.79 C 623.6 1379.31 636.254 1372.59 646.504 1371.3 z M 648.276 1397.9 C 648.859 1415.31 648.401 1432.47 648.433 1449.84 C 648.447 1457.91 647.995 1472.7 649.514 1480.11 C 653.305 1483.64 655.997 1482.83 661.613 1482.75 C 666.17 1482.51 670.051 1482.87 673.733 1480.47 C 675.977 1476.63 675.111 1407.86 674.852 1397.94 L 663.189 1397.48 C 658.219 1397.67 653.248 1397.81 648.276 1397.9 z"/>
<path transform="translate(0,0)" fill="rgb(254,254,254)" d="M 742.438 1371.3 C 755.354 1370.76 772.728 1368.78 784.595 1374.69 C 789.781 1377.27 794.104 1382.24 795.904 1387.77 C 799.677 1399.34 799.613 1487.28 794.463 1497 C 790.784 1503.94 782.777 1506.23 775.769 1508.18 C 759.19 1510.59 739.067 1510.48 724.844 1500.86 C 723.329 1497.84 722.038 1494.83 721.319 1491.5 C 717.969 1476.01 716.559 1392.83 724.348 1381.79 C 728.841 1375.43 735.003 1372.75 742.438 1371.3 z M 744.934 1398.45 C 744.961 1415.92 743.95 1467.31 745.93 1481.91 C 751.788 1482.36 757.364 1482.91 763.248 1482.85 C 766.505 1482.6 768.314 1482.79 771.024 1480.98 C 774.803 1474.27 773.465 1408.84 772.088 1398.3 C 769.02 1398.06 760.861 1397.19 758.23 1397.46 C 754.033 1397.76 749.041 1397.97 744.934 1398.45 z"/>
<path transform="translate(0,0)" fill="rgb(254,254,254)" d="M 1001.53 1376.29 C 1022.9 1373.6 1047.72 1385.51 1044.15 1410.55 C 1042.33 1423.29 1030.42 1431.17 1020.77 1437.97 C 1026.49 1442.47 1032.43 1449.06 1037.57 1454.43 C 1041.93 1449.35 1048.65 1443.37 1053.67 1438.64 C 1059.8 1443.59 1066.3 1449.93 1072.13 1455.36 C 1066.3 1461.52 1060.82 1465.86 1053.9 1470.64 C 1059.94 1478.52 1072.5 1490.26 1079.89 1498.37 L 1055.92 1498.34 C 1042.05 1498.38 1041.96 1497.97 1035.15 1486.32 C 1028.89 1489.91 1022.27 1493.82 1015.84 1497.04 C 998.158 1505.89 967.409 1501.97 956.649 1483.85 C 952.547 1476.84 951.487 1468.45 953.715 1460.63 C 957.507 1447.55 970.702 1439.78 981.909 1433.77 C 965.74 1417.79 964.325 1389.35 988.001 1379.55 C 992.638 1377.63 996.65 1377.06 1001.53 1376.29 z M 1004.74 1473.45 C 1008.46 1471.74 1012.34 1470.04 1016.01 1468.27 C 1011 1463.91 998.847 1451.68 994.928 1448.72 C 979.689 1462.92 982.243 1479.01 1004.74 1473.45 z M 1010.69 1419.06 C 1015.35 1416.05 1018.67 1414.31 1019.78 1408.51 C 1021.15 1401.35 1015.77 1396.44 1009.04 1396.29 C 1007.64 1396.26 1006.23 1396.29 1004.82 1396.35 C 995.493 1401.09 998.092 1417.61 1006.41 1420.27 L 1010.69 1419.06 z"/>
<path transform="translate(0,0)" fill="rgb(254,254,254)" d="M 1230.83 1369.75 C 1265.78 1371.9 1312.44 1357 1307.3 1407.88 C 1305.25 1428.1 1313.29 1445.47 1297 1461.87 C 1300.81 1476.65 1303.99 1491.35 1307.73 1506.08 C 1301.33 1506.09 1287.44 1507.65 1281.89 1505.23 C 1280.65 1504.69 1280.65 1503.37 1280.18 1501.78 C 1277.82 1490.63 1273.35 1475.74 1271.74 1465.93 C 1265.9 1466.1 1260.86 1465.75 1255.04 1465.41 C 1255.42 1479.31 1255.46 1493.22 1255.15 1507.13 C 1246.31 1506.57 1238.2 1506.39 1229.38 1506.27 C 1228.55 1488.71 1227.67 1380.79 1230.83 1369.75 z M 1255.29 1441.08 C 1262.26 1440.97 1272.16 1441.12 1278.76 1439.98 C 1281.63 1436.23 1280.1 1403.07 1279.94 1396.47 C 1271.68 1396.16 1263.43 1395.98 1255.17 1395.91 C 1255.36 1409.55 1256.11 1427.83 1255.29 1441.08 z"/>
<path transform="translate(0,0)" fill="rgb(254,254,254)" d="M 1430.95 1446.21 C 1430.24 1434.94 1429.17 1379.75 1432.5 1372.19 C 1437.79 1368.79 1449.4 1370.07 1456.17 1370.3 C 1459.64 1413.38 1454.72 1461.12 1456.6 1504.61 C 1453.53 1507.4 1439.03 1506.28 1434.49 1506.18 C 1428.8 1496.32 1423.93 1485.25 1418.91 1474.98 C 1411.65 1460.13 1404.05 1445.35 1397.32 1430.26 C 1398.63 1454.77 1398.07 1482.59 1398.09 1507.32 C 1389.57 1506.17 1380.83 1506.22 1372.22 1506.05 L 1371.86 1424.67 C 1371.82 1411.32 1371 1382.29 1373.82 1370.07 C 1383.33 1369.91 1386.21 1369.79 1394.82 1372.91 C 1407.77 1394.13 1419.49 1423.47 1430.95 1446.21 z"/>
<path transform="translate(0,0)" fill="rgb(254,254,254)" d="M 1533.95 1369.66 C 1543.45 1369.83 1552.9 1369.86 1562.37 1370.78 C 1551.76 1389.56 1537.85 1415.69 1526.23 1433.35 C 1535.54 1449.79 1543.34 1465.18 1551.94 1482.01 C 1555.94 1490 1560.04 1497.93 1564.25 1505.81 C 1554.38 1506.22 1544.69 1506.13 1534.83 1506.09 C 1529.14 1496.29 1513.23 1466.37 1509.76 1456.16 C 1499.62 1470.13 1502.34 1488.88 1502.55 1506.29 L 1475.65 1505.94 C 1474.4 1489.65 1473.68 1380.26 1477.32 1369.73 C 1485.1 1370.25 1494.08 1370.05 1501.86 1369.62 C 1502.3 1385.46 1503.53 1407.98 1501.4 1423.34 C 1513.04 1406.64 1522.23 1386.37 1533.95 1369.66 z"/>
<path transform="translate(0,0)" fill="rgb(254,254,254)" d="M 524.933 1350.95 C 544.448 1352.68 582.49 1352 602.733 1351.34 C 603.724 1360.86 603.918 1368.67 604.132 1378.19 C 588.471 1378.99 566.642 1378.25 550.589 1378.11 C 552.659 1388.25 552.421 1406.75 550.64 1416.92 C 564.185 1416.69 577.081 1416.73 590.642 1415.97 C 591.175 1424.79 591.257 1434.52 591.518 1443.43 L 577.75 1443.32 L 550.7 1443.74 C 552.713 1461.35 551.99 1490.05 552.241 1508.68 C 545.383 1509.01 530.598 1510.66 525.257 1507.34 C 523.139 1497.65 522.75 1358.56 524.933 1350.95 z"/>
<path transform="translate(0,0)" fill="rgb(254,254,254)" d="M 1313.55 713.105 C 1352.9 714.114 1394.21 712.3 1433.7 712.988 C 1451.25 713.294 1470.81 712.081 1488.1 713.768 C 1489.91 721.811 1491.26 736.962 1488.94 745.042 C 1488 748.326 1486.54 748.615 1484.01 749.996 C 1428.13 750.869 1371.74 750.007 1315.86 749.878 C 1302.86 749.848 1303.3 721.932 1313.55 713.105 z"/>
<path transform="translate(0,0)" fill="rgb(254,254,254)" d="M 1123.42 713.158 C 1128.07 712.622 1140.8 712.978 1146.03 712.993 L 1187.93 713.08 L 1249.61 712.992 C 1262.43 712.973 1278.26 712.516 1290.75 713.982 C 1296.9 719.038 1295.13 743.048 1290.56 749.735 C 1260.49 751.085 1225.5 749.603 1194.85 750.177 C 1181.19 750.433 1134.4 750.977 1123.76 748.791 C 1117.06 743.769 1119.01 719.954 1123.42 713.158 z"/>
<path transform="translate(0,0)" fill="rgb(254,254,254)" d="M 1121.22 1568.92 C 1128.65 1568.55 1137 1568.86 1144.52 1568.98 C 1145.77 1578.07 1153.53 1623.78 1158.04 1627.78 L 1158.79 1626.93 C 1158.38 1615.03 1166.63 1582.12 1170.75 1570.4 L 1171.32 1568.83 L 1192.58 1568.92 C 1191.56 1589.16 1192.32 1610.68 1192.02 1631.01 C 1191.88 1640.18 1192.76 1654.68 1191.13 1663.2 C 1188.24 1666.6 1179.56 1667.03 1176.07 1665 C 1172.89 1657.98 1174.13 1641.39 1174.32 1633.01 C 1175.04 1623.68 1174.96 1618 1174.5 1608.63 C 1172.68 1619.57 1165.18 1659.47 1158.83 1667.17 C 1146.92 1670.22 1142.84 1619.8 1138.01 1609.31 C 1137.61 1623.82 1138.64 1650.27 1139.73 1664.51 C 1133.87 1665.44 1128.16 1665.49 1122.24 1665.69 C 1120.14 1637.5 1119.16 1596.81 1121.22 1568.92 z"/>
<path transform="translate(0,0)" fill="rgb(254,254,254)" d="M 1497.29 1580.3 C 1540.26 1579.89 1528.01 1593.77 1530.52 1630.8 C 1531.45 1644.58 1532.45 1661.61 1516.25 1665.08 C 1491.42 1665.7 1479.97 1668.66 1481.26 1638.48 C 1481.96 1622.11 1479.04 1602.99 1483.79 1587.15 C 1485.04 1582.98 1493.75 1580.97 1497.29 1580.3 z M 1497.54 1650.16 L 1510.23 1648.86 L 1513.06 1648.61 C 1514.09 1643.47 1513.7 1602.87 1512.8 1597.29 C 1510.22 1595.72 1506.31 1596.26 1503.09 1596.34 C 1498.84 1597.19 1500.29 1596.1 1498.09 1598.99 C 1496.09 1613.04 1497.09 1635.46 1497.54 1650.16 z"/>
<path transform="translate(0,0)" fill="rgb(254,254,254)" d="M 1349.75 1369.63 C 1351.3 1369.08 1350.48 1369.25 1352.55 1369.99 C 1354.54 1373.57 1353.86 1491.81 1353.96 1506.23 L 1330.75 1506.14 L 1328.93 1505.97 C 1324.52 1502.01 1325.05 1375.79 1329.17 1371.14 C 1335.24 1369.5 1343.28 1369.74 1349.75 1369.63 z"/>
<path transform="translate(0,0)" fill="rgb(254,254,254)" d="M 946.391 1579.4 C 982.426 1582.03 995.234 1573.27 990.994 1620.9 C 990.273 1628.99 988.561 1633.16 985.755 1640.69 C 986.941 1646.58 989.964 1657.62 989.238 1662.82 C 987.995 1664.53 987.011 1666.31 984.66 1666.09 C 975.277 1665.25 974.248 1661.5 973.217 1654.22 C 971.617 1648.48 970.501 1640.92 963.672 1639.84 C 956.679 1645.47 960.889 1657.11 958.685 1662.76 C 954.093 1665.86 948.23 1666.82 943.572 1663.49 C 941.85 1656.39 940.889 1584.75 942.675 1580.7 L 946.391 1579.4 z M 957.942 1624.45 C 963.383 1623.51 965.685 1623.18 971.233 1622.98 C 972.493 1622.53 974.1 1622.45 974.347 1621.11 C 975.566 1614.49 976.145 1604.91 973.917 1598.5 C 972.933 1595.67 963.575 1596.12 960.79 1596.06 C 958.9 1599.7 959.447 1616.59 957.942 1624.45 z"/>
<path transform="translate(0,0)" fill="rgb(254,254,254)" d="M 1332.62 1579.44 C 1337.59 1579.2 1343.5 1579.25 1348.54 1579.17 C 1348.94 1590.57 1349.49 1659.6 1347.97 1666.3 L 1335.69 1665.01 C 1326.21 1650.39 1318.9 1632.61 1310.47 1617.16 C 1312.35 1630.38 1312.13 1650.54 1312.91 1664.9 C 1307.78 1665.08 1301.63 1665.64 1296.83 1664.29 C 1294.81 1661.12 1294.48 1649 1294.83 1645.18 C 1295.98 1632.43 1292.23 1587.9 1298.46 1579.18 C 1305.17 1579.52 1308.52 1580.66 1311.88 1586.69 C 1319.61 1600.6 1327.21 1616.73 1333.96 1631.09 C 1331.85 1608.98 1331.14 1602.59 1332.62 1579.44 z"/>
<path transform="translate(0,0)" fill="rgb(254,254,254)" d="M 859.679 1579.47 L 874.88 1579.1 C 875.611 1595.45 874.815 1614.45 875.217 1631.02 C 875.38 1637.72 875.768 1660.99 874.684 1666.03 L 862.444 1664.94 C 859.051 1659.61 840.75 1623.75 840.078 1623.3 C 837.032 1627.47 840.595 1655.06 839.55 1664.18 C 836.377 1666.73 827.385 1665.95 824.172 1663.78 C 821.227 1653.96 820.179 1585.96 825.849 1578.93 C 838.062 1580.04 839.614 1587.36 845.061 1597.34 C 850.651 1607.58 854.159 1619.04 860.36 1628.99 C 858.622 1611.73 858.673 1596.73 859.679 1579.47 z"/>
<path transform="translate(0,0)" fill="rgb(254,254,254)" d="M 426.05 1569.25 C 448.97 1567.43 468.231 1565.48 465.907 1595.09 C 465.418 1601.33 456.085 1599.75 451.842 1599.11 C 448.379 1593.26 444.073 1584.27 437.119 1583.05 C 432.4 1586.45 432.615 1599.13 432.297 1604.92 C 441.835 1610.07 457.794 1611.37 462.36 1617.25 C 466.313 1622.34 465.21 1646.14 464.47 1653.1 C 463.922 1658.26 461.073 1661.38 456.806 1664.24 C 402.968 1673.69 411.105 1634.93 424.974 1632.47 C 433.332 1634.24 433.044 1641.74 433.358 1648.44 L 447.864 1649.74 C 448.101 1643.36 448.672 1637.39 447.515 1631.14 C 440.342 1621.09 432.471 1623.79 423.094 1621.65 C 411.516 1619 416.053 1585.7 417.399 1577.15 C 418.068 1572.9 422.539 1570.74 426.05 1569.25 z"/>
<path transform="translate(0,0)" fill="rgb(254,254,254)" d="M 1270.03 1628.95 C 1268.71 1613.67 1268.63 1598.3 1269.79 1583.01 C 1272.73 1579.37 1278.26 1578.53 1282.46 1580.38 C 1286.07 1588.49 1283.03 1644.13 1284.43 1656.84 C 1284.84 1660.58 1284.44 1662.73 1281.95 1665.25 C 1281.08 1665.28 1275.73 1665.38 1275.39 1665.15 C 1260.33 1655.34 1256.23 1632.17 1246.97 1617.45 C 1248.72 1633.15 1246.01 1650.2 1248.22 1665.35 C 1243 1665.31 1237.46 1665.06 1232.22 1664.9 C 1230.82 1653.52 1229.14 1585.69 1234.12 1578.8 C 1241.06 1579.96 1243.65 1580.43 1247.83 1586.47 C 1256.64 1599.19 1260.81 1614.31 1269.08 1627.46 L 1270.03 1628.95 z"/>
<path transform="translate(0,0)" fill="rgb(254,254,254)" d="M 1617.84 1579.28 C 1623.25 1579.29 1629.89 1578.77 1634.51 1581.3 C 1641.36 1591.02 1653.7 1649.72 1657.56 1665.26 C 1640.77 1665.75 1641.67 1664.03 1636.24 1648.69 C 1629.13 1649 1621.76 1649.09 1614.61 1649.27 C 1613.08 1653.45 1611.75 1657.77 1610.02 1661.82 C 1608.22 1666.01 1599.27 1666.03 1596.18 1664.13 C 1595.94 1654.17 1602.24 1633.76 1604.79 1623.49 C 1606.86 1615.19 1612.99 1583.23 1617.84 1579.28 z M 1630.74 1634.29 L 1632.72 1634.39 C 1633.91 1631.48 1627.93 1606.84 1625.11 1604.57 C 1624.14 1609.96 1620.37 1630.24 1620.37 1634.59 L 1630.74 1634.29 z"/>
<path transform="translate(0,0)" fill="rgb(254,254,254)" d="M 497.275 1579.01 C 502.863 1579.41 508.457 1579.73 514.055 1579.97 C 520.215 1593.39 523.658 1612.95 527.154 1627.53 C 530.222 1640.33 533.578 1651.98 537.282 1664.65 C 515.437 1668.63 523.107 1663.13 515.698 1649.05 C 508.371 1649.15 500.728 1648.83 493.373 1648.63 C 492.368 1653.88 492.76 1657.88 490.357 1662.64 C 486.814 1665.89 479.517 1666.2 475.813 1663.48 C 473.482 1657.12 491.223 1598.08 493.023 1587.02 C 493.424 1584.56 495.557 1581.02 497.275 1579.01 z M 503.439 1634.82 C 506.235 1634.98 509.185 1635.57 511.472 1634.27 C 511.36 1629.04 507.908 1607.74 503.353 1605.39 C 504.246 1617.41 498.596 1626.26 498.072 1634.51 C 499.226 1634.74 503.534 1634.85 503.439 1634.82 z"/>
<path transform="translate(0,0)" fill="rgb(254,254,254)" d="M 1434.17 1580.4 C 1443.82 1579.83 1459.44 1578.39 1465.24 1586.96 C 1469.7 1593.56 1475.6 1605.69 1464.88 1609.87 C 1452.69 1614.62 1457.05 1600.22 1445.1 1595.44 C 1437.03 1596.6 1437.26 1603.76 1436.64 1610.3 C 1447.24 1614.56 1458.89 1616.87 1468.53 1622.88 C 1470.57 1637.69 1474.66 1660.57 1456.14 1665.07 C 1448.1 1665.17 1434.86 1666.46 1427.71 1662.94 C 1420.66 1659.48 1416.81 1646.38 1420.98 1639.49 C 1424.81 1635.92 1432.24 1635.49 1436.15 1639.43 C 1437.08 1643.09 1437.34 1645.97 1439.9 1648.61 C 1443.55 1650.3 1443.45 1650.12 1447.58 1649.97 C 1457.99 1643.9 1451.13 1630.15 1443.92 1628.89 C 1425.28 1625.64 1417.96 1627.66 1419.31 1604.08 C 1420 1591.87 1419.57 1584.06 1434.17 1580.4 z"/>
<path transform="translate(0,0)" fill="rgb(254,254,254)" d="M 713.046 1569.16 C 722.664 1568.73 735.089 1567.02 743.901 1571.86 C 750.988 1575.75 752.597 1595.13 749.021 1600.69 C 736.63 1603.62 736.157 1588.63 725.985 1583.89 C 714.009 1585.73 721.709 1628.05 719.508 1638.06 C 718.467 1642.79 719.546 1648.02 724.64 1649.91 C 732.267 1649.05 733.714 1645.64 734.478 1638.78 C 736.934 1633.18 739.845 1631.58 745.599 1632.58 C 746.792 1633.49 747.805 1634.34 748.585 1635.65 C 751.545 1640.62 752.067 1647.38 750.435 1652.88 C 749.139 1657.24 746.478 1660.62 742.442 1662.76 C 736.252 1666.04 716.261 1667.45 709.816 1664.25 C 706.124 1662.42 703.844 1657.2 702.781 1653.51 C 699.898 1643.5 699.021 1582.96 703.784 1575.32 C 706.061 1571.66 709.032 1570.27 713.046 1569.16 z"/>
<path transform="translate(0,0)" fill="rgb(254,254,254)" d="M 765.182 1579.09 C 772.787 1579.69 806.781 1580.01 810.239 1581.55 C 812.621 1585.1 812.902 1591.59 809.787 1594.51 C 803.798 1600.12 787.525 1597.37 779.843 1596.86 C 781.089 1605.69 781.062 1607.36 779.615 1615.83 C 786.999 1615.57 801.313 1611.95 805.42 1618.84 C 806.844 1639.67 792.856 1626.73 781.75 1632.56 C 781.048 1634.68 781.481 1641.34 780.357 1646.56 C 779.992 1647.75 780.251 1647.6 780.609 1649.16 C 786.336 1649.99 805.594 1649.67 812.8 1649.79 C 812.122 1655.24 812.093 1659.63 811.995 1665.07 C 795.093 1665.22 778.19 1665.22 761.288 1665.06 C 761.033 1653.21 761.893 1640.28 761.778 1628.04 C 761.647 1613.96 760.687 1598.06 762.12 1584.12 C 762.372 1581.67 763.457 1581.1 765.182 1579.09 z"/>
<path transform="translate(0,0)" fill="rgb(254,254,254)" d="M 1361.18 1579.03 C 1379.46 1580.37 1390.54 1581.29 1408.86 1579.69 L 1409.74 1597.16 C 1398.63 1597.06 1389.34 1598.11 1377.77 1597.67 C 1378 1603.13 1377.87 1609.36 1377.87 1614.9 L 1396.7 1615 C 1397.33 1615.38 1400.33 1617.17 1400.56 1617.53 C 1412.64 1636.12 1381.9 1631.12 1377.75 1630.96 L 1378.02 1642.87 C 1377.48 1645.42 1377.32 1645.35 1377.93 1647.84 C 1382.54 1650.91 1401.48 1649.34 1408.43 1649.21 C 1408.97 1653.94 1409.22 1660.16 1409.54 1665.02 C 1392.83 1665.02 1376.12 1665.24 1359.41 1665.68 C 1357.57 1639.32 1359.58 1609.88 1359.31 1583.25 C 1359.29 1581.75 1360.33 1580.19 1361.18 1579.03 z"/>
<path transform="translate(0,0)" fill="rgb(254,254,254)" d="M 609.097 1579.44 C 613.948 1579.25 618.136 1579.41 622.965 1579.58 C 623.038 1586.29 622.298 1603.9 623.416 1608.9 L 624.73 1609.31 C 631.114 1602.6 635.54 1587.8 643.039 1581.08 C 646.655 1577.84 655.093 1579.63 660.393 1580.09 C 654.207 1592.82 645.464 1607.95 637.388 1619.44 C 644.316 1629.13 650.783 1643.57 656.027 1654.53 C 657.194 1657.8 660.557 1662.9 662.471 1666.05 C 655.784 1666.09 651.737 1665.86 645.075 1665.19 C 636.934 1654.44 631.853 1644.47 625.539 1632.65 C 623.254 1645.58 623.494 1651.71 623.605 1664.8 C 618.84 1665.22 611.761 1665.13 606.779 1665.19 C 606.042 1638.38 606.933 1610.82 606.749 1583.97 C 606.737 1582.19 607.961 1580.67 609.097 1579.44 z"/>
<path transform="translate(0,0)" fill="rgb(254,254,254)" d="M 1003.99 1579.6 C 1021.35 1580.35 1034.53 1581.53 1051.87 1579.4 L 1051.93 1597.38 C 1039.72 1596.79 1032.55 1598.42 1019.75 1596.91 C 1020.8 1604.11 1020.9 1607.77 1020.97 1615.1 C 1032.38 1614.77 1035.87 1614.41 1046.6 1618.07 L 1044.35 1629.54 C 1038.16 1630.75 1027.56 1630.94 1020.88 1631.23 C 1021.07 1637.81 1021.48 1642.27 1020.05 1648.71 C 1023.1 1650.53 1048.08 1649.3 1052.85 1648.92 C 1052.04 1654.57 1051.98 1660.47 1051.77 1666.19 C 1040.33 1664.52 1015.15 1665.1 1002.57 1665.1 C 1002.38 1652.54 1001.4 1586.3 1003.99 1579.6 z"/>
<path transform="translate(0,0)" fill="rgb(254,254,254)" d="M 557.814 1580.3 C 559.302 1580.33 559.046 1580.5 560.571 1581.33 C 563.377 1586.71 563.194 1640.75 562.271 1649.11 L 578.275 1648.96 C 577.642 1638.83 577.16 1589.38 580.395 1582.14 C 584.487 1580.15 590.163 1580.35 594.908 1580.1 C 594.374 1587.05 594.471 1595.34 594.385 1602.42 C 594.836 1617.46 595.928 1634.18 594.867 1649.19 C 594.285 1657.44 590.195 1660.95 583.438 1664.98 C 548.377 1666.04 544.995 1668.48 545.499 1628.51 C 545.649 1616.6 545.731 1594.57 549.233 1583.76 C 551.175 1581.37 554.586 1581.09 557.814 1580.3 z"/>
<path transform="translate(0,0)" fill="rgb(254,254,254)" d="M 650.152 618.08 C 684.582 616.903 726.884 617.821 761.662 618.093 C 762.08 624.871 762.581 634.507 761.079 641.004 C 726.029 641.257 684.389 642.117 649.777 640.807 C 648.888 633.032 647.858 625.714 650.152 618.08 z"/>
<path transform="translate(0,0)" fill="rgb(254,254,254)" d="M 1541.2 1579.84 C 1548.37 1580.92 1579.44 1579.99 1588.48 1579.87 C 1588.81 1585.6 1588.25 1590.98 1587.82 1596.7 L 1573.12 1596.81 C 1572.63 1614.4 1573.05 1633.77 1573.06 1651.5 L 1573.05 1665.28 L 1555.96 1665.03 C 1554.04 1646.74 1554.98 1615.94 1555.01 1596.78 C 1548.89 1597.01 1543.39 1598.48 1539.07 1593.67 C 1537.54 1589.01 1539.55 1584.47 1541.2 1579.84 z"/>
<path transform="translate(0,0)" fill="rgb(254,254,254)" d="M 887.057 1580.41 C 888.178 1580.34 889.299 1580.28 890.421 1580.25 C 897.353 1580.03 931.127 1578.36 932.746 1581.63 C 940.009 1596.32 926.592 1597.33 917.02 1596.16 L 916.977 1653.42 L 916.984 1665.26 L 901.25 1664.92 C 898.776 1644.7 900.819 1618.9 899.802 1597.1 C 894.524 1596.98 889.24 1596.56 883.969 1596.21 C 883.871 1594.43 883.788 1592.65 883.722 1590.87 C 883.512 1584.94 883.349 1584.38 887.057 1580.41 z"/>
<path transform="translate(0,0)" fill="rgb(254,254,254)" d="M 1206.64 1579.95 L 1220.07 1579.67 C 1220.07 1607.29 1220.31 1634.97 1220.19 1662.59 C 1219.71 1663.36 1219.22 1664.14 1218.74 1664.92 L 1203.85 1665.32 C 1203.13 1652.65 1200.09 1586.53 1206.64 1579.95 z"/>
<path transform="translate(0,0)" fill="rgb(254,254,254)" d="M 1066.85 1649.12 C 1071.48 1649.69 1076.21 1649.55 1080.9 1649.56 L 1079.5 1666.41 C 1076.82 1669.83 1074.49 1673.09 1071.98 1676.62 C 1069.52 1677.97 1069.72 1678 1066.94 1677.79 C 1064.78 1674.07 1067.53 1672.09 1066.82 1665.71 C 1061.91 1658.36 1060.01 1656.3 1066.85 1649.12 z"/>
</svg>