<svg width="2000" height="600" viewBox="0 700 2000 600" xmlns="http://www.w3.org/2000/svg" preserveAspectRatio="xMidYMid meet" version="1.1">

 <g>
  <title>Layer 1</title>
  <g stroke="null" id="svg_50">
   <path stroke="null" id="svg_6" d="m1077.23533,915.64537c29.15723,-1.08744 55.76956,-1.33142 81.78405,11.71137c42.116,21.11051 55.02629,74.19541 33.81883,114.66329c-9.07275,17.30448 -14.48571,23.11088 -29.51271,35.10824c6.09159,17.40143 16.79631,37.05287 24.38252,54.09235c6.95605,15.61596 14.14639,31.45167 21.60333,46.84385c2.72263,5.62301 13.24153,15.61515 13.80707,20.50782c-5.30792,5.56565 -40.28206,4.49033 -47.19771,0.08725c-2.1571,-6.79527 -2.24597,-12.56774 -5.36448,-20.3737c-4.67776,-11.73237 -10.03416,-22.87174 -15.30977,-34.32619l-26.45883,-57.47909c-3.99104,0.05817 -10.69664,-0.48797 -14.00096,0.86203c-7.14994,6.85183 -2.95693,38.75593 -3.15082,49.22312c-0.08887,4.4774 4.23341,14.57215 3.47398,19.55691c-5.72803,4.69957 -19.39776,3.38269 -25.61861,3.52731c-31.31433,0.72631 -19.70476,-4.9072 -17.02252,-25.7608c0.74327,-5.81529 -0.04847,-27.57616 -0.0404,-34.47404l0.03232,-71.91955l0.01616,-52.47574c0,-12.5532 0.68672,-29.83668 -1.75315,-42.06106c-1.12299,-5.62058 -3.97488,-9.69807 -1.01796,-15.13768c2.41563,-2.11024 4.13646,-1.85252 7.52966,-2.17568zm72.25887,119.68602c7.76395,-6.57876 15.34208,-20.9352 15.55214,-31.0348c0.59785,-28.29924 -24.40676,-50.39377 -51.30994,-51.16451c-3.40127,6.15057 -3.60325,84.37418 -1.84202,93.87917c8.98388,8.48056 30.30445,-4.76986 37.59982,-11.67986z" fill="#000000"/>
   <g stroke="null" id="svg_49">
    <g stroke="null" id="svg_46">
     <path stroke="null" id="svg_1" d="m1354.45667,870.24327c17.78496,-0.9079 39.7289,-0.54172 57.55605,-0.05575c31.59627,0.86118 68.74615,14.72825 90.12652,38.95135c41.19133,46.66884 36.61117,116.92639 -4.06255,162.42664c-6.48185,7.27823 -14.29577,12.77835 -21.51373,19.20519c4.70448,13.31329 11.34154,26.37794 17.45495,39.15629c7.21193,15.12908 14.34626,30.30337 21.40147,45.50779l16.11609,35.84869c2.65136,5.96725 5.29668,12.0023 8.18688,17.90174c3.59014,7.33097 19.17656,19.43876 16.72788,27.69646c-6.18198,6.23849 -52.38142,4.2268 -60.6444,0.33151c-7.03638,-6.33643 -4.50859,-12.29614 -6.14506,-20.77235c-0.37823,-1.95894 -2.14052,-7.54194 -2.91807,-9.13923c-7.75064,-15.95786 -51.49839,-116.66268 -57.20194,-122.47171c-6.24903,-2.29046 -17.33666,-0.33905 -23.6535,1.48428c-0.71501,6.30629 -1.70051,63.19857 -0.4822,66.76234c12.9102,37.83023 3.39048,28.06565 -32.7739,29.88897c-5.4308,0.27124 -20.9592,1.08495 -25.52354,-4.98024c-1.57092,-7.7529 5.58601,-22.89705 5.41121,-33.02329c-0.41515,-24.02721 -0.25994,-48.37086 -0.26144,-72.41314l0.02411,-167.12359c0.01432,-16.27657 0.86194,-26.30787 -4.75195,-41.86189c-2.27087,-6.28897 -0.45583,-11.78607 6.92713,-13.32007zm101.66998,165.36807c13.97255,-13.12493 26.36815,-36.11992 22.82924,-55.77191c-5.87457,-32.62396 -33.44747,-57.46413 -66.84296,-57.96366c-1.00283,-0.0226 -2.0049,-0.00377 -3.00547,0.05651c-0.94557,1.06687 -3.17952,3.52384 -3.23829,4.9177c-1.58222,37.50701 -0.51159,75.22573 -0.6133,112.78473c-0.03089,11.48243 1.58976,13.33589 13.62295,12.54478c15.66628,-1.13016 25.31484,-6.85631 37.24782,-16.56815z" fill="#000000"/>
     <path stroke="null" id="svg_2" d="m1217.42925,755.84844c30.35309,-0.24261 71.19332,9.36602 101.00544,16.62541c29.5115,7.98722 55.44868,14.80209 86.16116,14.79681c19.19389,-0.00301 37.63359,-31.32352 45.29005,-8.78888c4.40084,14.93092 10.45248,30.44878 13.53405,45.60046c2.44793,12.03771 -20.25021,6.7885 -24.88387,8.03017c-26.63713,7.13734 -49.20417,7.75365 -76.45083,3.11548c-20.59378,-3.50651 -40.40926,-10.29124 -60.95934,-12.57868c-1.97326,-0.21548 -4.53948,0.57261 -5.95444,2.10134c-2.8141,8.68415 -1.71106,66.77741 -1.71031,80.7703l0.02185,139.40302l-0.03541,80.96469c-0.03089,14.8051 -0.19288,29.59513 0.12808,44.3927c0.19288,8.89059 8.94409,21.02852 4.10248,28.9321c-6.58883,5.15353 -36.64131,3.42815 -46.55206,3.41308c-15.2873,-0.12808 -18.42387,-3.79734 -13.15808,-19.0093c4.25618,-12.29614 3.08609,-27.16152 3.09287,-40.19604l0.01884,-53.69768l0.01206,-143.81592l-0.02788,-89.54938c-0.01658,-10.06596 1.35619,-45.84156 -2.25429,-46.7811c-40.61947,-10.41857 -113.02583,13.93563 -107.99059,66.06013c4.39256,15.90588 14.34927,28.18243 -10.8405,28.64504c-13.65987,0.2509 -28.06716,-0.12432 -41.8423,-0.39104c-3.56679,-2.82163 -6.07499,-4.53119 -5.96875,-9.35848c0.12808,-5.82259 3.81542,-11.35585 4.67886,-16.99158c1.13091,-7.38748 1.80298,-14.85558 3.11095,-22.22046c10.56549,-65.7354 76.93227,-98.4445 137.47195,-99.47219z" fill="#000000"/>
     <path stroke="null" id="svg_3" d="m1783.75561,870.35855c10.72145,-0.67885 21.3525,-0.04822 31.81025,-0.4046c36.54185,-1.40291 74.89196,4.09645 104.26106,28.02346c48.30305,39.35068 54.33811,118.33834 14.30783,165.61671c-25.01422,29.54993 -57.44982,37.86791 -94.20263,41.16044c-2.24525,0.36919 -1.80072,0.34658 -3.9631,1.28838c-2.5617,2.86307 -2.07196,59.06971 -1.28085,66.66439c0.75344,7.23303 7.62482,17.38187 5.83163,24.39639c-0.52741,2.08703 -1.30345,3.08157 -3.23979,4.00077c-5.73368,2.73499 -50.75173,2.81033 -56.80186,0.20343c-2.24525,-0.97194 -3.93296,-2.37334 -4.71654,-4.75421c-2.16991,-6.57 6.34397,-19.42369 6.76589,-27.44029c0.80618,-15.36265 0.00753,-31.23763 0.0226,-46.65302l0.03014,-99.17534l0.00753,-78.83848c0,-21.62599 2.5843,-42.46992 -6.10287,-62.11813c-2.87814,-6.50596 0.33905,-10.73878 7.2707,-11.9699zm50.45789,179.95242c18.47435,5.36449 37.37064,-2.28292 51.0079,-14.93319c33.24932,-31.4938 30.13761,-72.29711 -5.29668,-100.38009c-11.38448,-9.02094 -22.47512,-11.10948 -36.38363,-13.60638c-2.64458,0.51912 -6.12547,1.14975 -7.76043,3.58939c-4.03844,6.01773 0.25617,110.20872 -1.56716,125.33026z" fill="#000000"/>
     <path stroke="null" id="svg_5" d="m1630.84492,870.25005c16.37226,-0.71426 35.07264,-0.01432 49.91542,-0.30364c27.35741,-0.53344 19.86068,8.96895 15.17429,27.51714c-0.53494,2.12922 1.80072,11.40181 2.54663,14.24605l30.11501,111.10079l12.63519,47.06741c2.38087,9.19951 5.04052,18.87368 7.25563,28.07318c2.1247,8.79265 16.00307,24.23064 12.08518,31.96093c-6.99193,3.35281 -46.61535,2.53156 -56.4176,1.59729c-3.51103,-0.33151 -5.77889,-4.72407 -7.38371,-7.67002c1.3788,-13.76535 2.63704,-27.2444 -4.27201,-40.37686c-2.22265,-4.23433 -4.89736,-4.7316 -9.30499,-5.75628c-12.703,-1.54455 -32.28491,-6.80357 -43.63172,-6.93918c-12.11532,-0.14315 -14.38317,38.04873 -13.4263,46.977c1.00961,9.44814 -5.52272,14.48112 -15.17429,14.04413c-7.51933,-0.34658 -45.04066,2.87061 -49.66678,-2.73499c-1.71031,-8.52141 9.6591,-18.70039 12.60506,-30.05473c3.68432,-14.14207 7.81318,-28.75128 11.50503,-42.90842l20.38809,-77.26153l14.93319,-54.48654c6.14054,-22.47889 10.34473,-24.39187 -0.55755,-45.80691c3.51857,-5.47751 4.53571,-6.95049 10.67625,-8.28483zm34.30413,151.39251l8.17483,-1.31852c0.03767,-0.6781 0.38425,-7.11248 0.08288,-8.30291c-2.62197,-10.35227 -4.91996,-25.16792 -10.51049,-34.10673c-0.32398,-0.52364 -2.69732,-1.27783 -3.21719,-1.44661c-1.82333,3.11849 -2.87814,7.05145 -3.69186,10.6883c-2.06443,9.2869 -6.17068,19.6889 -5.98985,29.16718c0.08288,4.57338 11.77627,5.08572 15.15168,5.31929z" fill="#000000"/>
     <path stroke="null" id="svg_10" d="m1566.71209,1162.49068c34.40208,-1.33359 75.28375,-0.15069 110.35639,-0.21096l47.90373,-0.06781c6.03506,-0.00753 30.02459,-1.17537 34.61304,2.57677c3.285,2.68978 2.70485,27.13892 1.71784,32.11916c-0.53494,2.71992 -1.89867,3.66172 -4.12885,5.10832c-6.90151,1.22057 -24.16283,0.76851 -32.07395,0.76851l-59.12999,0.00753l-61.95539,0.06028c-11.4975,0.03014 -23.62789,0.32398 -35.10278,-0.40686c-2.06443,0.00753 -4.29461,-0.66303 -5.48504,-2.62951c-4.65626,-7.68509 -2.28292,-19.21273 -2.51649,-27.83208c-0.12808,-4.73914 2.29799,-7.03713 5.80149,-9.49335z" fill="#000000"/>
    </g>
    <path stroke="null" id="svg_4" d="m627.2526,833.17542c7.15479,-0.27469 14.31443,-0.39264 21.47407,-0.35467c69.39566,0.82002 114.614,67.96163 89.81945,132.60116c-6.96413,18.14955 -17.43455,29.62258 -31.19314,42.80675c16.93365,10.61423 30.18327,24.39222 35.54774,44.14141c5.34024,20.36805 2.39139,42.02147 -8.19214,60.22353c-10.25229,17.57432 -33.64109,37.16436 -52.87727,42.15316c-7.74779,1.97613 -15.63293,3.36653 -23.5932,4.1607c-9.21979,0.89677 -48.00642,2.18134 -54.76776,-1.79597c-2.03915,-3.99104 1.64408,-18.30466 2.11267,-23.60855c0.70288,-7.96269 0.70045,-15.55699 0.69722,-23.53341l-0.06625,-174.49418c0.0404,-7.36323 -5.152,-19.50036 -3.373,-25.00137c1.62469,-5.02193 29.78416,-3.28493 34.13149,-3.22757c4.03709,0.00242 7.30506,0.02828 10.51648,2.52874c2.48996,4.66241 -2.4019,16.11686 -2.73637,24.5441c-0.8588,21.60899 -0.38537,42.84069 -0.1947,64.41736c7.65408,-2.34373 15.04477,-5.47274 22.05253,-9.33775c16.90942,-9.51548 29.42384,-23.70065 34.54594,-42.60397c4.54042,-17.01363 2.03592,-35.14137 -6.96413,-50.27905c-29.43999,-49.58991 -122.92814,-23.18682 -133.34847,30.29556c-4.63817,23.80649 0.09372,46.55785 20.25817,61.97749c4.13404,3.16133 -15.83894,13.20276 -17.32952,14.17305c-27.51718,16.07647 -23.04463,11.84467 -32.27816,-14.14073c-1.57622,-4.43377 -5.94132,-13.13812 -7.75345,-18.40161c-1.45099,-4.17848 -2.59741,-8.45552 -3.43117,-12.7988c-13.43624,-70.40069 44.2012,-113.01839 106.94296,-124.44538zm16.71713,203.66999c1.40818,25.78585 0.17451,58.21266 0.3167,84.64241c17.5113,0.28438 26.37158,-1.84444 40.63915,-12.33668c37.01005,-31.46622 16.34388,-79.13089 -32.4664,-73.86094c-2.74606,0.52675 -5.74015,1.16823 -8.48945,1.55521z" fill="#000000"/>
    <path stroke="null" id="svg_7" d="m770.91073,915.67527c23.06564,-1.08178 49.90418,0.10987 73.20411,-0.37244c9.14546,-0.18905 45.56574,-0.63097 52.82879,1.34677c4.93629,4.56789 3.94257,36.73859 1.0422,40.83951c-3.66788,1.80405 -9.3232,-0.81113 -12.98301,-2.06985c-12.57097,-4.33198 -66.97518,-2.72667 -82.16376,-1.25467c-0.31508,4.86923 -0.63016,16.56202 0.17774,21.04426c5.22713,3.40935 38.39964,2.16276 46.82607,2.05046c4.51618,-0.05978 18.47675,-4.90236 24.16439,-3.78503c2.34292,6.47938 3.02964,38.12172 0.76751,44.39024c-7.81242,6.86314 -14.57457,-2.50127 -20.39148,-2.16276c-13.76667,0.79982 -37.71292,-2.19103 -50.35661,0.9404c-2.34292,2.52389 -1.51886,18.5123 -1.5027,22.77641c0.05655,9.40399 0.41203,20.23717 -0.47666,29.49816c16.73976,0.46939 33.47951,0.68591 50.21927,0.64955c7.73163,0.00081 15.46327,0.02424 23.20298,-0.21167c5.88961,-0.17935 18.85646,-5.61008 23.14643,-2.49723c2.05207,5.46708 2.11671,38.41095 -1.08259,39.5194c-5.17058,1.78708 -55.34945,1.79839 -60.68969,1.26275c-18.37172,-1.83879 -60.14032,3.40693 -75.31274,-1.29345c-5.45335,-5.71672 1.38151,-14.28938 1.56733,-19.88735c1.61581,-47.98137 0.56553,-96.42083 0.47666,-144.47815c-0.00808,-6.25236 -5.33216,-20.44803 -2.01168,-24.63943c3.36896,-1.77254 5.52606,-1.51563 9.34744,-1.6659z" fill="#000000"/>
    <path stroke="null" id="svg_8" d="m961.95561,915.70031c11.84386,-0.34497 41.1142,-2.63053 49.96074,3.29786c3.32856,6.27256 -2.61761,8.32948 -2.35908,16.94577c0.21005,7.04411 1.1553,9.48559 2.965,16.07485l25.10155,91.43203c3.22353,11.94243 6.62481,24.08198 9.27473,36.19164c0.95333,4.3441 13.92825,25.0854 9.57365,27.13828c-4.8151,2.27102 -16.8367,0.39426 -22.92829,0.87496c-4.24149,0.33366 -13.03956,0.57765 -17.54766,-0.3062c-14.16254,-6.26529 3.1589,-35.21973 -16.8771,-38.84964c-44.82247,-12.655 -37.51903,-3.61779 -41.67973,34.16704c-0.51706,1.45019 -2.49642,3.91268 -4.07991,4.10092c-7.22266,0.86122 -36.72728,2.31383 -42.29374,-0.44758c-1.06643,-5.73611 9.81602,-23.92121 11.39951,-32.01478c1.07451,-5.51717 4.15262,-16.43033 5.6634,-21.9782c6.03504,-21.76653 11.8277,-43.60012 17.36992,-65.49672c4.6616,-17.97019 15.34208,-43.10487 10.18766,-61.24715c-1.89049,-6.64824 0.02424,-8.8215 6.26933,-9.88308zm25.77211,111.52297c3.33664,-1.80243 3.03772,-1.03412 4.83934,-3.8335c1.09875,-7.91826 -4.33844,-20.7106 -7.14186,-28.10372c-1.35728,-1.04139 -0.92101,-0.91535 -2.47218,-1.43888c-2.83574,7.19034 -7.60237,22.17129 -6.53594,29.82052c2.43179,3.00702 4.16878,2.83978 8.11135,3.24858c1.06643,0.11068 2.13286,0.21329 3.1993,0.307z" fill="#000000"/>
    <path stroke="null" id="svg_22" d="m915.34767,1129.50868c31.79099,0.81517 65.16548,-0.65036 97.06958,-0.09452c14.1787,0.24722 29.98129,-0.73277 43.94994,0.63016c1.4623,6.49797 2.55297,18.73851 0.67864,25.26637c-0.75943,2.65315 -1.93897,2.88664 -3.98296,4.00235c-45.14563,0.7053 -90.7033,0.00889 -135.84893,-0.09533c-10.50274,-0.02424 -10.14726,-22.57766 -1.86626,-29.70903z" fill="#000000"/>
    <path stroke="null" id="svg_23" d="m761.74103,1129.5515c3.75675,-0.43304 14.04136,-0.14542 18.26669,-0.1333l33.85115,0.07029l49.83147,-0.0711c10.35732,-0.01535 23.14643,-0.38456 33.23714,0.79982c4.96861,4.08476 3.53862,23.48252 -0.1535,28.88497c-24.29365,1.09067 -52.56219,-0.10664 -77.32442,0.35709c-11.03596,0.20682 -48.83775,0.64632 -57.43384,-1.11975c-5.41295,-4.05729 -3.83754,-23.29751 -0.27469,-28.78802z" fill="#000000"/>
    <g stroke="null" id="svg_48">
     <path stroke="null" id="svg_9" d="m94.05691,839.91137c32.68041,-3.76156 79.29031,11.92228 111.61379,18.36133c10.77893,2.14756 30.77967,3.58007 40.76854,-0.94251c2.3121,-1.04656 8.18008,-5.6877 10.7378,-7.54005c10.89992,-1.09737 14.77279,25.45493 18.26696,33.57573c1.16876,2.71742 -0.48275,5.55583 -1.90558,7.76509c-6.27087,3.36471 -11.32338,1.86565 -17.95238,3.30422c-36.94165,8.01675 -62.04571,-1.37928 -97.97467,-10.39177l-0.13551,160.4753c-0.00968,32.84253 -1.516,75.90019 3.08765,107.5292c-6.74152,0.42346 -14.08678,0.53356 -20.88879,0.75497c-6.3108,0.11978 -17.53981,0.97759 -22.67218,-1.93825c-0.51178,-6.45478 0.93162,-22.33704 1.19174,-29.59881c0.5142,-14.33602 0.4767,-27.93158 0.48517,-42.26396l0.1343,-202.95342c-24.53783,-0.51904 -56.30961,0.87838 -70.88034,24.66971c-8.49949,13.87626 -5.22311,24.09017 -1.63214,38.72382l-1.35629,1.65513c-7.76509,2.18023 -33.20066,3.04893 -41.15328,-0.70174c-5.83168,-7.78324 0.9292,-18.39037 1.78943,-28.05136c3.95756,-44.41152 47.44956,-69.35588 88.47581,-72.43263z" fill="#000000"/>
     <path stroke="null" id="svg_11" d="m199.08162,916.71777c10.98703,0.89653 29.9884,-0.21415 38.98637,2.38107c1.52083,1.84509 2.43551,2.83599 1.89953,5.61753c-4.80569,24.9504 -2.41495,49.63584 -2.91221,75.11134c21.08601,0.86628 46.28323,0.18511 67.67171,0.16092c-0.47912,-7.89576 -1.54503,-78.50629 -0.89774,-80.04286c7.4481,-2.84204 32.9611,-2.71863 40.32572,-0.39322c5.3816,5.41548 -0.7707,21.81678 -0.68359,31.05794c0.56623,60.20425 -0.65092,120.49198 0.5263,180.67688c0.12825,6.56488 5.4917,13.53386 1.17239,19.02556c-6.96777,1.75918 -21.94261,1.64666 -29.72706,1.89227c-5.08155,-0.21052 -6.74515,0.00484 -11.40808,-1.70232c-2.32178,-4.02289 0.15366,-26.45188 0.19358,-33.08451c0.16092,-27.06167 -0.1101,-54.12212 0.07743,-81.18137c-22.49432,0.1839 -44.99106,0.1718 -67.48538,-0.0363c1.46639,36.42018 -3.41553,80.41188 5.14204,114.4764c-9.21212,0.86991 -36.53391,2.84325 -43.86465,-0.42346c-0.41862,-5.6998 -0.0121,-10.12196 0.21899,-15.777c2.19354,-53.88014 0.63398,-107.99379 1.10463,-161.92354c0.14519,-16.71708 -1.32967,-33.27325 -2.47423,-49.90807c-0.11857,-1.72047 1.3938,-4.48386 2.13425,-5.92726z" fill="#000000"/>
     <path stroke="null" id="svg_13" d="m368.33954,918.29184c19.27964,-1.19416 46.95835,-0.196 66.80905,-0.39563c18.41456,-0.18511 51.14337,-0.88685 68.07218,1.37444c0.73682,11.9731 0.25892,27.89165 -0.38959,39.73166c-35.61077,-5.28239 -59.23634,-4.10154 -94.75031,-3.40948c0.92194,8.74147 1.00179,13.98757 0.93041,22.82099c17.99352,-1.72652 38.00998,1.76039 55.20014,-2.99327c2.32299,-0.64245 10.83217,-5.29086 12.47036,-1.57891c5.04283,11.4238 2.49601,33.4257 2.04593,45.72184c-27.75614,-6.7633 -41.45939,-5.0271 -70.42784,-4.56613c0.05324,4.52379 0.54687,10.10744 0.82152,14.7135c0.05324,11.10681 0.70779,25.86145 -1.43372,36.34396c22.87907,0.31215 46.84583,1.12036 69.68981,-0.15729c8.97014,-0.50211 17.63055,-6.74273 24.34183,-3.12878c3.53168,7.8643 1.73499,29.56856 1.39017,39.09042c-2.5686,0.17664 -5.14083,0.30852 -7.71427,0.39805c-14.82723,0.40531 -122.86458,1.70474 -126.70841,-1.94672c-0.86265,-11.02938 3.7059,-22.05271 3.77486,-32.79777c0.25892,-40.69352 0.46218,-81.53587 -0.19237,-122.2185c-0.14035,-8.71365 -5.47476,-17.587 -3.92973,-27.00238z" fill="#000000"/>
     <path stroke="null" id="svg_41" d="m368.22581,1123.82838c41.6566,-1.42404 92.83747,-0.31336 134.91511,0.01573c0.50574,8.20065 1.11189,19.85918 -0.70537,27.71985c-42.40673,0.3061 -92.78666,1.34661 -134.66346,-0.23835c-1.07559,-9.40691 -2.32178,-18.26091 0.45371,-27.49723z" fill="#000000"/>
    </g>
   </g>
  </g>
 </g>
</svg>