<?xml version="1.0" encoding="UTF-8"?>
<svg version="1.1" viewBox="0 0 2048 584" width="1128" height="322" xmlns="http://www.w3.org/2000/svg">
<path transform="translate(804,61)" d="m0 0h28l17 3 15 6 13 9 8 9 6 11 1 3v14l-2 9-9 12-9 9-5 2 5 5 10 7 7 8 2 5 1 12-2 10-7 10-9 8-16 8-13 4-15 2h-39l-3-1 1-14v-94l-1-14-1-4 5-2h29l1 5-2 7-1 10v23l14-3 14-7 10-10 3-7v-11l-5-10-7-6-11-5-4-1h-32l-16 4-14 7-8 7-4 9v13l4 8 10 9-1 3-16 7-6 2h-8l-12-23-2-6v-17l6-12 8-9 13-9 12-6 18-6zm19 102-5 3v39l1 2h15l12-4 9-6 7-8v-11l-7-8-10-5-7-2z" fill="#030202"/>
<path transform="translate(1315,61)" d="m0 0h30l26 3 40 6h24l13-5 4 1 7 16 2 6-6 2-10 1h-37l-25-3-12-2v115l1 17 1 8-1 1h-30l-2-1 1-85 1-40v-18l-1-1h-19l-16 3-11 4-7 5-2 4v10l1 7-1 1h-32v-8l3-12 5-10 10-10 14-8 16-5z" fill="#050404"/>
<path transform="translate(363,61)" d="m0 0h25l29 3 39 6h24l10-4h7l6 12 3 10-6 2-11 1h-34l-39-5 1 105 1 35-8 1h-23l1-114v-30l-1-1h-15l-17 2-14 5-7 5-2 4v8l1 8-1 2h-30l-3-1 1-9 4-12 4-8 10-10 14-8 16-5z" fill="#030202"/>
<path transform="translate(1130,103)" d="m0 0h37l17 3 16 6 10 7 7 8 4 8 2 7v10l-4 11-8 11-8 6-6 4 1 6 11 18 15 22 9 11 4 5v2h-32l-4-5-9-17-9-13-11-17-4-4h-11v19l1 15-2 1h-28l-1-1-1-116-2-3v-3zm26 19-1 2v44l1 2h13l11-4 6-4 7-8 1-2v-12l-5-7-9-6-13-4-4-1z" fill="#030202"/>
<path transform="translate(1395,103)" d="m0 0h41l17 3 16 6 11 8 7 10 3 9 1 13-5 13-8 10-13 9 2 8 26 39 11 13-1 4h-30l-4-5-10-19-21-31-2-1h-10v34l-1 1h-32l2-26v-70l-1-27zm29 20v47l5 1 15-3 10-5 8-9 2-5-1-8-4-6-7-6-8-4-8-2z" fill="#040303"/>
<path transform="translate(447,102)" d="m0 0h29l4 2v6l-3 1 1 3v30h49l-1-41 1-1h33l-1 8-1 3v112l-31 1-1-4 1-8v-48h-49v40l1 20h-32v-105l-1-18z" fill="#040303"/>
<path transform="translate(577,102)" d="m0 0h95l5 1v21h-69v8h50l1 1v22l-52-1v26l70-2v23l-40 1-55-1-5-1-1-97z" fill="#070606"/>
<path transform="translate(905,103)" d="m0 0h92l7 1v21l-23-1h-46l-1 2v6h52l1 2-1 21h-52l-1 25 70-1 1 1v20l-1 1h-99v-80l-1-11-2-6z" fill="#030202"/>
<path transform="translate(1627,103)" d="m0 0h35l14 2 15 5 12 7 8 8 5 10 1 4v15l-3 10-9 10-8 6-8 4-19 5-19 3 2 34-1 1h-30v-81l-1-34-2-5v-3zm25 19-1 1-1 9v34l1 4h13l14-5 10-9 3-7-1-8-4-6-7-6-12-5-8-2z" fill="#050404"/>
<path transform="translate(1540,103)" d="m0 0h40l1 15 12 35 12 30 6 11 1 1v6h-34l-2-19-27-3-5-1-3 19-4 4-24 1-5-1 1-7 11-26 17-45 2-8v-11zm17 42-3 7v7h11l1-4-3-8-1-2z" fill="#050404"/>
<path transform="translate(1050,103)" d="m0 0h31l3 1 1 13 9 25 14 37 8 16 2 5-1 1h-32l-2-4-2-15-18-2h-13l-5 19-2 2h-30l1-7 6-13 15-40 7-19 3-18zm13 41-3 5-2 8 1 2h10l1-7-3-7z" fill="#020101"/>
<path transform="translate(984,280)" d="m0 0h21l11 4 6 5 3 7v6l-7 8-8 5h-2v2l10 4 5-1 8-4 6 1 6 4 2 3-1 5-7 5 1 4 12 8 1 3-3 1h-23l-6-4h-7l-17 5h-22l-12-4-8-7-2-5 1-8 7-7 11-7-3-9-2-3v-7l6-8 9-5zm9 12-5 5 1 6 3 2h7l5-4 1-6-3-3zm-12 31-3 4-1 6 5 3h10l7-3v-3l-5-4-7-3z" fill="#030202"/>
<path transform="translate(1102,273)" d="m0 0h29l8 3 5 4 1 4v25l-1 34-7 6-12 2h-35l-1-11v-66zm6 13v51l1 1h14l3-1v-49l-1-2z" fill="#020101"/>
<path transform="translate(1259,282)" d="m0 0h8l6 2 9 9 15 22 2 1 1-28 1-6h14l2 1v68h-13l-5-5-13-17-8-11-1 9-1 23-1 1h-16z" fill="#030202"/>
<path transform="translate(854,282)" d="m0 0h27l15 1 8 3 4 5v51l-3 5-8 3-10 1h-33l-1-1v-67zm19 14-1 2v40h15l2-1 1-4v-36l-2-1z" fill="#050404"/>
<path transform="translate(1158,283)" d="m0 0h44l9 6 2 3v31l-4 3h-2l3 16 2 8-1 1h-14l-5-4-3-12-2-3-11-2v20l-1 1h-17l-1-66zm18 13v21h16l2-1 1-3v-16l-1-1z" fill="#020101"/>
<path transform="translate(731,282)" d="m0 0h24l10 3 6 6v51l-5 5-6 3-6 1h-24l-9-3-4-4-2-18v-35l7-6zm3 14v41l1 1h14l4-1v-41z" fill="#030202"/>
<path transform="translate(1378,282)" d="m0 0h12l-1 5-9 13-9 11 1 7 10 15 9 13 1 4-1 1h-13l-7-3-9-10-7-8-3-1-2 21-2 1h-17v-68h19l1 3v19l7-6 7-8 9-8z" fill="#020101"/>
<path transform="translate(801,282)" d="m0 0h19l11 2 8 5 1 3v38l-1 13-5 5-5 2-6 1h-26l-8-4-5-6v-50l7-6zm2 14-1 9v28l1 4 12 1 7-1v-41z" fill="#050404"/>
<path transform="translate(1082,384)" d="m0 0h16l4 9 7 24 2 1 2-9 7-20 4-5h15v57l-1 1h-13v-27h-2l-1 6-3 9-2 9-7 3-5-1-4-8-4-17-3-2 1 3v23l-2 2h-11l-2-5 1-52z" fill="#040303"/>
<path transform="translate(650,273)" d="m0 0h52v13l-35 1v18h26l1 1v11l-1 1-10 1h-16v31l-2 1h-17l-1-47v-30z" fill="#0A0909"/>
<path transform="translate(1506,211)" d="m0 0h106l1 3v12l-1 1h-106z" fill="#040303"/>
<path transform="translate(1013,211)" d="m0 0h104l1 1v14l-1 1h-104l-2-4v-11z" fill="#020101"/>
<path transform="translate(504,384)" d="m0 0h18l9 3 2 2v14l-1 1h-9l-7-8h-8v10l20 4 6 2v14l-1 9-5 5-4 2h-17l-10-3-3-3v-13l1-1h7l4 2 4 5 7 1 3-3-2-5-9-4-15-5-1-1v-17l3-7z" fill="#050404"/>
<path transform="translate(1226,391)" d="m0 0h8l8 6 8 13 1 3 4 1 1-22h13l1 1v47l-2 2h-8l-8-8-9-13-3-2-1 22-2 1h-10l-1-1z" fill="#040303"/>
<path transform="translate(577,210)" d="m0 0h73l26 1v15l-11 1h-87l-3-3 1-13z" fill="#040303"/>
<path transform="translate(863,391)" d="m0 0h9l3 2 1 6v27l-1 15-1 1h-8l-7-7-9-12-2-4h-2l-1 22-1 1h-11l-1-46 1-4h9l5 5 4 5 8 11 3 2v-23z" fill="#040303"/>
<path transform="translate(1173,391)" d="m0 0h7l5 3 7 8 8 12 3 2v-24h12l1 2v46l-4 2-6-1-8-8-10-14-2-1v23l-1 1h-12z" fill="#030202"/>
<path transform="translate(903,211)" d="m0 0h100l1 7v8l-3 1h-98l-1-1v-14z" fill="#020101"/>
<path transform="translate(932,392)" d="m0 0h36l4 4 1 3v20l-3 6 1 17h-10l-4-5-2-9-9-1v10l-2 5h-11l-1-1zm17 8-4 2v13l1 2h11l2-2v-11l-3-3z" fill="#040303"/>
<path transform="translate(742,384)" d="m0 0h17l9 2 3 2v16l-2 1-9-1-3-6-3-2h-7l-1 35 9-1 2-1 3-7h11l1 3v9l-5 5-8 3h-17l-9-3-2-5v-43l1-3 6-3z" fill="#070606"/>
<path transform="translate(652,392)" d="m0 0h13l1 1-1 14 6-3 8-9 5-3h11l-1 4-11 14-2 3 1 5 13 18 2 5-1 1h-9l-8-5-9-10-3-1v13l-3 3h-11l-2-3v-46z" fill="#070606"/>
<path transform="translate(786,390)" d="m0 0 29 1 7 1 1 5-2 5-24 1v7l20 2v10l-2 1h-20l2 7 25 2v10h-40l-1-2v-18l1-30z" fill="#040303"/>
<path transform="translate(1349,391)" d="m0 0 13 1 8 4v12l-4 1-8-2-3-3-8-1-3 1-1 3 7 3 17 4 3 2v18l-2 4-5 3-4 1h-19l-7-3-3-3v-12l9 2 12 4 4-1 1-5-16-4-9-4-1-1v-17l6-6z" fill="#060505"/>
<path transform="translate(982,392)" d="m0 0h41v7l-2 3-23 1-1 8h9l11 1v10l-7 1h-14l1 7h24l2 4v7l-1 1h-40z" fill="#040303"/>
<path transform="translate(1283,391)" d="m0 0h33l4 1v9l-1 1h-25v9h20v10l-1 1-19 1 1 7 25 2 1 7-3 3h-38l-1-45 1-5z" fill="#030202"/>
<path transform="translate(1386,392)" d="m0 0h29l5 5 1 2v28l-2 10-6 4-4 1h-20l-6-4-3-4v-36l4-5zm7 9v22l1 8 1 1h8l4-1 1-2v-27l-1-1z" fill="#050404"/>
<path transform="translate(601,392)" d="m0 0h11l3 3 1 36 10-1 2-38h13v44l-5 4-6 2h-19l-6-3-4-5-1-17v-21z" fill="#030202"/>
<path transform="translate(1497,391)" d="m0 0h9l5 3 4 8 10 33 1 6-2 1h-8l-5-5-2-5h-18l-1 7-5 3h-8l-1-4 6-20 8-23 3-3zm2 16-3 8-1 7 1 1h7l3-1-2-12-1-2z" fill="#090808"/>
<path transform="translate(564,391)" d="m0 0h7l5 2 6 12 8 25 2 7-1 5h-9l-5-6-2-3-19-1-1 9-1 1h-11l1-10 11-33 5-7zm2 17-3 5-2 9 2 1h7l3-1-2-10-3-4z" fill="#060505"/>
<path transform="translate(1227,283)" d="m0 0h18v67l-18 1-1-1v-65z" fill="#020101"/>
<path transform="translate(884,391)" d="m0 0h27l13 1v10h-12l-1 32-1 8h-13l-1-1v-39h-7l-6-2v-7z" fill="#060505"/>
<path transform="translate(1429,392)" d="m0 0h41v8l-4 1h-10v40l-1 1h-12l-1-1v-39l-12-1-2-2v-6z" fill="#020101"/>
<path transform="translate(1149,391)" d="m0 0h12l2 1v26l-1 24h-13z" fill="#030202"/>
<path transform="translate(1033,431)" d="m0 0 12 1 1 1-1 12-3 2h-7l-3-3v-11z" fill="#121111"/>
</svg>
