<svg width="2000" height="1996" xmlns="http://www.w3.org/2000/svg" version="1.1" preserveAspectRatio="none">
 <rect width="2000" height="1996" fill="#fff"/>
 <g>
  <title>Layer 1</title>
  <g id="svg_46">
   <path fill="#000000" d="m735.895,834.63934c23.605,-1.205 52.73,-0.719 76.391,-0.074c41.936,1.143 91.243,19.548 119.62,51.698c54.671,61.941 48.592,155.19 -5.392,215.58c-8.603,9.66 -18.974,16.96 -28.554,25.49c6.244,17.67 15.053,35.01 23.167,51.97c9.572,20.08 19.041,40.22 28.405,60.4l21.39,47.58c3.519,7.92 7.03,15.93 10.866,23.76c4.765,9.73 25.452,25.8 22.202,36.76c-8.205,8.28 -69.523,5.61 -80.49,0.44c-9.339,-8.41 -5.984,-16.32 -8.156,-27.57c-0.502,-2.6 -2.841,-10.01 -3.873,-12.13c-10.287,-21.18 -68.351,-154.84 -75.921,-162.55c-8.294,-3.04 -23.01,-0.45 -31.394,1.97c-0.949,8.37 -2.257,83.88 -0.64,88.61c17.135,50.21 4.5,37.25 -43.499,39.67c-7.208,0.36 -27.818,1.44 -33.876,-6.61c-2.085,-10.29 7.414,-30.39 7.182,-43.83c-0.551,-31.89 -0.345,-64.2 -0.347,-96.11l0.032,-221.814c0.019,-21.603 1.144,-34.917 -6.307,-55.561c-3.014,-8.347 -0.605,-15.643 9.194,-17.679zm134.941,219.484c18.545,-17.42 34.997,-47.94 30.3,-74.023c-7.797,-43.3 -44.393,-76.269 -88.717,-76.932c-1.331,-0.03 -2.661,-0.005 -3.989,0.075c-1.255,1.416 -4.22,4.677 -4.298,6.527c-2.1,49.781 -0.679,99.843 -0.814,149.693c-0.041,15.24 2.11,17.7 18.081,16.65c20.793,-1.5 33.599,-9.1 49.437,-21.99z" id="svg_1"/>
   <path fill="#000000" d="m552.026,682.80934c40.286,-0.322 94.491,12.431 134.059,22.066c39.169,10.601 73.594,19.646 114.357,19.639c25.475,-0.004 49.949,-41.574 60.111,-11.665c5.841,19.817 13.873,40.413 17.963,60.523c3.249,15.977 -26.877,9.01 -33.027,10.658c-35.354,9.473 -65.306,10.291 -101.469,4.135c-27.333,-4.654 -53.633,-13.659 -80.908,-16.695c-2.619,-0.286 -6.025,0.76 -7.903,2.789c-3.735,11.526 -2.271,88.63 -2.27,107.202l0.029,185.022l-0.047,107.46c-0.041,19.65 -0.256,39.28 0.17,58.92c0.256,11.8 11.871,27.91 5.445,38.4c-8.745,6.84 -48.632,4.55 -61.786,4.53c-20.29,-0.17 -24.453,-5.04 -17.464,-25.23c5.649,-16.32 4.096,-36.05 4.105,-53.35l0.025,-71.27l0.016,-190.879l-0.037,-118.854c-0.022,-13.36 1.8,-60.843 -2.992,-62.09c-53.912,-13.828 -150.013,18.496 -143.33,87.678c5.83,21.111 19.045,37.405 -14.388,38.019c-18.13,0.333 -37.252,-0.165 -55.535,-0.519c-4.734,-3.745 -8.063,-6.014 -7.922,-12.421c0.17,-7.728 5.064,-15.072 6.21,-22.552c1.501,-9.805 2.393,-19.717 4.129,-29.492c14.023,-87.247 102.108,-130.66 182.459,-132.024z" id="svg_2"/>
   <path fill="#000000" d="m1305.68,834.79234c14.23,-0.901 28.34,-0.064 42.22,-0.537c48.5,-1.862 99.4,5.437 138.38,37.194c64.11,52.228 72.12,157.064 18.99,219.814c-33.2,39.22 -76.25,50.26 -125.03,54.63c-2.98,0.49 -2.39,0.46 -5.26,1.71c-3.4,3.8 -2.75,78.4 -1.7,88.48c1,9.6 10.12,23.07 7.74,32.38c-0.7,2.77 -1.73,4.09 -4.3,5.31c-7.61,3.63 -67.36,3.73 -75.39,0.27c-2.98,-1.29 -5.22,-3.15 -6.26,-6.31c-2.88,-8.72 8.42,-25.78 8.98,-36.42c1.07,-20.39 0.01,-41.46 0.03,-61.92l0.04,-131.63l0.01,-104.638c0,-28.703 3.43,-56.368 -8.1,-82.446c-3.82,-8.635 0.45,-14.253 9.65,-15.887zm66.97,238.841c24.52,7.12 49.6,-3.03 67.7,-19.82c44.13,-41.8 40,-95.956 -7.03,-133.229c-15.11,-11.973 -29.83,-14.745 -48.29,-18.059c-3.51,0.689 -8.13,1.526 -10.3,4.764c-5.36,7.987 0.34,146.274 -2.08,166.344z" id="svg_3"/>
   <path fill="#000000" d="m956.954,349.64534c8.856,-0.34 17.718,-0.486 26.58,-0.439c85.896,1.015 141.866,84.121 111.176,164.13c-8.62,22.465 -21.58,36.666 -38.61,52.985c20.96,13.138 37.36,30.192 44,54.637c6.61,25.211 2.96,52.013 -10.14,74.543c-12.69,21.753 -41.64,46.001 -65.45,52.176c-9.59,2.446 -19.35,4.167 -29.203,5.15c-11.412,1.11 -59.421,2.7 -67.79,-2.223c-2.524,-4.94 2.035,-22.657 2.615,-29.222c0.87,-9.856 0.867,-19.256 0.863,-29.129l-0.082,-215.984c0.05,-9.114 -6.377,-24.137 -4.175,-30.946c2.011,-6.216 36.866,-4.066 42.247,-3.995c4.997,0.003 9.042,0.035 13.017,3.13c3.082,5.771 -2.973,19.949 -3.387,30.38c-1.063,26.747 -0.477,53.027 -0.241,79.734c9.474,-2.901 18.622,-6.774 27.296,-11.558c20.93,-11.778 36.42,-29.336 42.76,-52.734c5.62,-21.059 2.52,-43.497 -8.62,-62.234c-36.44,-61.381 -152.157,-28.7 -165.055,37.499c-5.741,29.467 0.116,57.628 25.075,76.714c5.117,3.913 -19.605,16.342 -21.45,17.543c-34.06,19.899 -28.524,14.661 -39.953,-17.503c-1.951,-5.488 -7.354,-16.262 -9.597,-22.777c-1.796,-5.172 -3.215,-10.466 -4.247,-15.842c-16.631,-87.14 54.711,-139.891 132.371,-154.035zm20.692,252.097c1.743,31.917 0.216,72.054 0.392,104.768c21.675,0.352 32.642,-2.283 50.302,-15.27c45.81,-38.948 20.23,-97.946 -40.186,-91.423c-3.399,0.652 -7.105,1.446 -10.508,1.925z" id="svg_4"/>
   <path fill="#000000" d="m1102.73,834.64834c21.73,-0.948 46.55,-0.019 66.25,-0.403c36.31,-0.708 26.36,11.904 20.14,36.522c-0.71,2.826 2.39,15.133 3.38,18.908l39.97,147.458l16.77,62.47c3.16,12.21 6.69,25.05 9.63,37.26c2.82,11.67 21.24,32.16 16.04,42.42c-9.28,4.45 -61.87,3.36 -74.88,2.12c-4.66,-0.44 -7.67,-6.27 -9.8,-10.18c1.83,-18.27 3.5,-36.16 -5.67,-53.59c-2.95,-5.62 -6.5,-6.28 -12.35,-7.64c-16.86,-2.05 -42.85,-9.03 -57.91,-9.21c-16.08,-0.19 -19.09,50.5 -17.82,62.35c1.34,12.54 -7.33,19.22 -20.14,18.64c-9.98,-0.46 -59.78,3.81 -65.92,-3.63c-2.27,-11.31 12.82,-24.82 16.73,-39.89c4.89,-18.77 10.37,-38.16 15.27,-56.95l27.06,-102.545l19.82,-72.317c8.15,-29.835 13.73,-32.374 -0.74,-60.797c4.67,-7.27 6.02,-9.225 14.17,-10.996zm45.53,200.935l10.85,-1.75c0.05,-0.9 0.51,-9.44 0.11,-11.02c-3.48,-13.74 -6.53,-33.404 -13.95,-45.268c-0.43,-0.695 -3.58,-1.696 -4.27,-1.92c-2.42,4.139 -3.82,9.359 -4.9,14.186c-2.74,12.326 -8.19,26.132 -7.95,38.712c0.11,6.07 15.63,6.75 20.11,7.06z" id="svg_5"/>
   <path fill="#000000" d="m1513.93,451.72434c36.09,-1.346 69.03,-1.648 101.23,14.496c52.13,26.13 68.11,91.837 41.86,141.927c-11.23,21.419 -17.93,28.606 -36.53,43.456c7.54,21.539 20.79,45.863 30.18,66.954c8.61,19.329 17.51,38.93 26.74,57.982c3.37,6.96 16.39,19.328 17.09,25.384c-6.57,6.889 -49.86,5.558 -58.42,0.108c-2.67,-8.411 -2.78,-15.556 -6.64,-25.218c-5.79,-14.522 -12.42,-28.31 -18.95,-42.488l-32.75,-71.146c-4.94,0.072 -13.24,-0.604 -17.33,1.067c-8.85,8.481 -3.66,47.971 -3.9,60.927c-0.11,5.542 5.24,18.037 4.3,24.207c-7.09,5.817 -24.01,4.187 -31.71,4.366c-38.76,0.899 -24.39,-6.074 -21.07,-31.886c0.92,-7.198 -0.06,-34.133 -0.05,-42.671l0.04,-89.02l0.02,-64.953c0,-15.538 0.85,-36.931 -2.17,-52.062c-1.39,-6.957 -4.92,-12.004 -1.26,-18.737c2.99,-2.612 5.12,-2.293 9.32,-2.693zm89.44,148.144c9.61,-8.143 18.99,-25.913 19.25,-38.414c0.74,-35.028 -30.21,-62.376 -63.51,-63.33c-4.21,7.613 -4.46,104.436 -2.28,116.201c11.12,10.497 37.51,-5.904 46.54,-14.457z" id="svg_6"/>
   <path fill="#000000" d="m1134.77,451.76134c28.55,-1.339 61.77,0.136 90.61,-0.461c11.32,-0.234 56.4,-0.781 65.39,1.667c6.11,5.654 4.88,45.474 1.29,50.55c-4.54,2.233 -11.54,-1.004 -16.07,-2.562c-15.56,-5.362 -82.9,-3.375 -101.7,-1.553c-0.39,6.027 -0.78,20.5 0.22,26.048c6.47,4.22 47.53,2.677 57.96,2.538c5.59,-0.074 22.87,-6.068 29.91,-4.685c2.9,8.02 3.75,47.186 0.95,54.945c-9.67,8.495 -18.04,-3.096 -25.24,-2.677c-17.04,0.99 -46.68,-2.712 -62.33,1.164c-2.9,3.124 -1.88,22.914 -1.86,28.192c0.07,11.64 0.51,25.049 -0.59,36.512c20.72,0.581 41.44,0.849 62.16,0.804c9.57,0.001 19.14,0.03 28.72,-0.262c7.29,-0.222 23.34,-6.944 28.65,-3.091c2.54,6.767 2.62,47.544 -1.34,48.916c-6.4,2.212 -68.51,2.226 -75.12,1.563c-22.74,-2.276 -74.44,4.217 -93.22,-1.601c-6.75,-7.076 1.71,-17.687 1.94,-24.616c2,-59.39 0.7,-119.347 0.59,-178.831c-0.01,-7.739 -6.6,-25.31 -2.49,-30.498c4.17,-2.194 6.84,-1.876 11.57,-2.062z" id="svg_7"/>
   <path fill="#000000" d="m1373.24,451.79234c14.66,-0.427 50.89,-3.256 61.84,4.082c4.12,7.764 -3.24,10.31 -2.92,20.975c0.26,8.719 1.43,11.741 3.67,19.897l31.07,113.172c3.99,14.782 8.2,29.808 11.48,44.797c1.18,5.377 17.24,31.05 11.85,33.591c-5.96,2.811 -20.84,0.488 -28.38,1.083c-5.25,0.413 -16.14,0.715 -21.72,-0.379c-17.53,-7.755 3.91,-43.594 -20.89,-48.087c-55.48,-15.664 -46.44,-4.478 -51.59,42.291c-0.64,1.795 -3.09,4.843 -5.05,5.076c-8.94,1.066 -45.46,2.864 -52.35,-0.554c-1.32,-7.1 12.15,-29.609 14.11,-39.627c1.33,-6.829 5.14,-20.337 7.01,-27.204c7.47,-26.942 14.64,-53.967 21.5,-81.07c5.77,-22.243 18.99,-53.354 12.61,-75.81c-2.34,-8.229 0.03,-10.919 7.76,-12.233zm31.9,138.04c4.13,-2.231 3.76,-1.28 5.99,-4.745c1.36,-9.801 -5.37,-25.635 -8.84,-34.786c-1.68,-1.289 -1.14,-1.133 -3.06,-1.781c-3.51,8.9 -9.41,27.443 -8.09,36.911c3.01,3.722 5.16,3.515 10.04,4.021c1.32,0.137 2.64,0.264 3.96,0.38z" id="svg_8"/>
   <path fill="#000000" d="m423.546,386.75034c27.011,-3.109 65.535,9.854 92.251,15.176c8.909,1.775 25.44,2.959 33.696,-0.779c1.911,-0.865 6.761,-4.701 8.875,-6.232c9.009,-0.907 12.21,21.039 15.098,27.751c0.966,2.246 -0.399,4.592 -1.575,6.418c-5.183,2.781 -9.359,1.542 -14.838,2.731c-30.533,6.626 -51.282,-1.14 -80.978,-8.589l-0.112,132.636c-0.008,27.145 -1.253,62.733 2.552,88.875c-5.572,0.35 -11.643,0.441 -17.265,0.624c-5.216,0.099 -14.497,0.808 -18.739,-1.602c-0.423,-5.335 0.77,-18.462 0.985,-24.464c0.425,-11.849 0.394,-23.086 0.401,-34.932l0.111,-167.745c-20.281,-0.429 -46.541,0.726 -58.584,20.39c-7.025,11.469 -4.317,19.911 -1.349,32.006l-1.121,1.368c-6.418,1.802 -27.441,2.52 -34.014,-0.58c-4.82,-6.433 0.768,-15.2 1.479,-23.185c3.271,-36.707 39.218,-57.324 73.127,-59.867z" id="svg_9"/>
   <path fill="#000000" d="m1017.61,1222.52334c45.66,-1.77 99.92,-0.2 146.47,-0.28l63.58,-0.09c8.01,-0.01 39.85,-1.56 45.94,3.42c4.36,3.57 3.59,36.02 2.28,42.63c-0.71,3.61 -2.52,4.86 -5.48,6.78c-9.16,1.62 -32.07,1.02 -42.57,1.02l-78.48,0.01l-82.23,0.08c-15.26,0.04 -31.36,0.43 -46.59,-0.54c-2.74,0.01 -5.7,-0.88 -7.28,-3.49c-6.18,-10.2 -3.03,-25.5 -3.34,-36.94c-0.17,-6.29 3.05,-9.34 7.7,-12.6z" id="svg_10"/>
   <path fill="#000000" d="m510.351,450.23234c9.081,0.741 24.786,-0.177 32.223,1.968c1.257,1.525 2.013,2.344 1.57,4.643c-3.972,20.622 -1.996,41.025 -2.407,62.081c17.428,0.716 38.254,0.153 55.932,0.133c-0.396,-6.526 -1.277,-64.887 -0.742,-66.157c6.156,-2.349 27.243,-2.247 33.33,-0.325c4.448,4.476 -0.637,18.032 -0.565,25.67c0.468,49.76 -0.538,99.589 0.435,149.333c0.106,5.426 4.539,11.186 0.969,15.725c-5.759,1.454 -18.136,1.361 -24.57,1.564c-4.2,-0.174 -5.575,0.004 -9.429,-1.407c-1.919,-3.325 0.127,-21.863 0.16,-27.345c0.133,-22.367 -0.091,-44.733 0.064,-67.098c-18.592,0.152 -37.186,0.142 -55.778,-0.03c1.212,30.102 -2.823,66.462 4.25,94.617c-7.614,0.719 -30.196,2.35 -36.255,-0.35c-0.346,-4.711 -0.01,-8.366 0.181,-13.04c1.813,-44.533 0.524,-89.259 0.913,-133.833c0.12,-13.817 -1.099,-27.501 -2.045,-41.25c-0.098,-1.422 1.152,-3.706 1.764,-4.899z" id="svg_11"/>
   <path fill="#000000" d="m1134.14,1353.35334c19.65,-0.03 77.06,-6.97 76.57,22.28c-0.43,25.7 7.5,109.62 -5.99,128.24c-12.35,8.82 -53.88,5.74 -70.97,5.62c-2.05,-23.79 0.18,-60.19 -0.63,-85.39c-0.34,-10.45 -0.46,-64.24 1.02,-70.75zm26.18,129.94c8.15,-0.03 18.14,0.32 25.9,-1.53c-1.71,-10.5 -0.45,-19.11 -0.8,-29.32c-0.77,-21.97 1.42,-50.56 -0.49,-71.94c-8.12,-0.09 -16.4,-0.09 -24.5,-0.29c1.14,20.26 0.44,42.57 0.61,63.1c0.08,9.8 0.47,30.99 -0.72,39.98z" id="svg_12"/>
   <path fill="#000000" d="m650.246,451.53334c15.935,-0.987 38.812,-0.162 55.219,-0.327c15.22,-0.153 42.271,-0.733 56.263,1.136c0.609,9.896 0.214,23.053 -0.322,32.839c-29.433,-4.366 -48.96,-3.39 -78.313,-2.818c0.762,7.225 0.828,11.561 0.769,18.862c14.872,-1.427 31.416,1.455 45.624,-2.474c1.92,-0.531 8.953,-4.373 10.307,-1.305c4.168,9.442 2.063,27.627 1.691,37.79c-22.941,-5.59 -34.267,-4.155 -58.21,-3.774c0.044,3.739 0.452,8.354 0.679,12.161c0.044,9.18 0.585,21.375 -1.185,30.039c18.91,0.258 38.719,0.926 57.6,-0.13c7.414,-0.415 14.572,-5.573 20.119,-2.586c2.919,6.5 1.434,24.439 1.149,32.309c-2.123,0.146 -4.249,0.255 -6.376,0.329c-12.255,0.335 -101.55,1.409 -104.727,-1.609c-0.713,-9.116 3.063,-18.227 3.12,-27.108c0.214,-33.634 0.382,-67.391 -0.159,-101.016c-0.116,-7.202 -4.525,-14.536 -3.248,-22.318z" id="svg_13"/>
   <path fill="#000000" d="m818.504,1374.12334c57.005,0.95 85.189,-13.02 79.038,62.58c-1.783,21.91 5.339,49.85 -8.007,68.74c-14.212,10.07 -52.916,7.05 -71.191,6.85c-1.703,-21.43 -0.475,-53.05 -0.696,-75.13c-0.157,-15.65 -0.743,-48.74 0.856,-63.04zm26.158,112.02c8.424,-0.68 15.031,-0.82 23.508,-0.84c3.757,-6.11 2.116,-71.78 1.699,-83.92c-8.145,-0.02 -16.86,0.11 -24.949,-0.28c1.027,12.27 1.932,75.27 -0.258,85.04z" id="svg_14"/>
   <path fill="#000000" d="m648.504,1374.63334c12.853,-0.66 29.218,-2.25 41.06,3.69c5.712,2.86 8.359,6.64 10.354,12.64c5.052,15.2 5.487,97.06 -1.774,110.34c-3.431,6.28 -10.885,8.09 -17.223,9.98c-19.678,2.74 -55.209,5.12 -56.244,-22.5c-1.323,-31.14 -1.964,-63.57 0.144,-94.66c0.779,-11.48 13.433,-18.2 23.683,-19.49zm1.772,26.6c0.583,17.41 0.125,34.57 0.157,51.94c0.014,8.07 -0.438,22.86 1.081,30.27c3.791,3.53 6.483,2.72 12.099,2.64c4.557,-0.24 8.438,0.12 12.12,-2.28c2.244,-3.84 1.378,-72.61 1.119,-82.53l-11.663,-0.46c-4.97,0.19 -9.941,0.33 -14.913,0.42z" id="svg_15"/>
   <path fill="#000000" d="m744.438,1374.63334c12.916,-0.54 30.29,-2.52 42.157,3.39c5.186,2.58 9.509,7.55 11.309,13.08c3.773,11.57 3.709,99.51 -1.441,109.23c-3.679,6.94 -11.686,9.23 -18.694,11.18c-16.579,2.41 -36.702,2.3 -50.925,-7.32c-1.515,-3.02 -2.806,-6.03 -3.525,-9.36c-3.35,-15.49 -4.76,-98.67 3.029,-109.71c4.493,-6.36 10.655,-9.04 18.09,-10.49zm2.496,27.15c0.027,17.47 -0.984,68.86 0.996,83.46c5.858,0.45 11.434,1 17.318,0.94c3.257,-0.25 5.066,-0.06 7.776,-1.87c3.779,-6.71 2.441,-72.14 1.064,-82.68c-3.068,-0.24 -11.227,-1.11 -13.858,-0.84c-4.197,0.3 -9.189,0.51 -13.296,0.99z" id="svg_16"/>
   <path fill="#000000" d="m1003.53,1379.62334c21.37,-2.69 46.19,9.22 42.62,34.26c-1.82,12.74 -13.73,20.62 -23.38,27.42c5.72,4.5 11.66,11.09 16.8,16.46c4.36,-5.08 11.08,-11.06 16.1,-15.79c6.13,4.95 12.63,11.29 18.46,16.72c-5.83,6.16 -11.31,10.5 -18.23,15.28c6.04,7.88 18.6,19.62 25.99,27.73l-23.97,-0.03c-13.87,0.04 -13.96,-0.37 -20.77,-12.02c-6.26,3.59 -12.88,7.5 -19.31,10.72c-17.682,8.85 -48.431,4.93 -59.191,-13.19c-4.102,-7.01 -5.162,-15.4 -2.934,-23.22c3.792,-13.08 16.987,-20.85 28.194,-26.86c-16.169,-15.98 -17.584,-44.42 6.092,-54.22c4.637,-1.92 8.649,-2.49 13.529,-3.26zm3.21,97.16c3.72,-1.71 7.6,-3.41 11.27,-5.18c-5.01,-4.36 -17.163,-16.59 -21.082,-19.55c-15.239,14.2 -12.685,30.29 9.812,24.73zm5.95,-54.39c4.66,-3.01 7.98,-4.75 9.09,-10.55c1.37,-7.16 -4.01,-12.07 -10.74,-12.22c-1.4,-0.03 -2.81,0 -4.22,0.06c-9.327,4.74 -6.728,21.26 1.59,23.92l4.28,-1.21z" id="svg_17"/>
   <path fill="#000000" d="m1232.83,1373.08334c34.95,2.15 81.61,-12.75 76.47,38.13c-2.05,20.22 5.99,37.59 -10.3,53.99c3.81,14.78 6.99,29.48 10.73,44.21c-6.4,0.01 -20.29,1.57 -25.84,-0.85c-1.24,-0.54 -1.24,-1.86 -1.71,-3.45c-2.36,-11.15 -6.83,-26.04 -8.44,-35.85c-5.84,0.17 -10.88,-0.18 -16.7,-0.52c0.38,13.9 0.42,27.81 0.11,41.72c-8.84,-0.56 -16.95,-0.74 -25.77,-0.86c-0.83,-17.56 -1.71,-125.48 1.45,-136.52zm24.46,71.33c6.97,-0.11 16.87,0.04 23.47,-1.1c2.87,-3.75 1.34,-36.91 1.18,-43.51c-8.26,-0.31 -16.51,-0.49 -24.77,-0.56c0.19,13.64 0.94,31.92 0.12,45.17z" id="svg_18"/>
   <path fill="#000000" d="m1432.95,1449.54334c-0.71,-11.27 -1.78,-66.46 1.55,-74.02c5.29,-3.4 16.9,-2.12 23.67,-1.89c3.47,43.08 -1.45,90.82 0.43,134.31c-3.07,2.79 -17.57,1.67 -22.11,1.57c-5.69,-9.86 -10.56,-20.93 -15.58,-31.2c-7.26,-14.85 -14.86,-29.63 -21.59,-44.72c1.31,24.51 0.75,52.33 0.77,77.06c-8.52,-1.15 -17.26,-1.1 -25.87,-1.27l-0.36,-81.38c-0.04,-13.35 -0.86,-42.38 1.96,-54.6c9.51,-0.16 12.39,-0.28 21,2.84c12.95,21.22 24.67,50.56 36.13,73.3z" id="svg_19"/>
   <path fill="#000000" d="m1535.95,1372.99334c9.5,0.17 18.95,0.2 28.42,1.12c-10.61,18.78 -24.52,44.91 -36.14,62.57c9.31,16.44 17.11,31.83 25.71,48.66c4,7.99 8.1,15.92 12.31,23.8c-9.87,0.41 -19.56,0.32 -29.42,0.28c-5.69,-9.8 -21.6,-39.72 -25.07,-49.93c-10.14,13.97 -7.42,32.72 -7.21,50.13l-26.9,-0.35c-1.25,-16.29 -1.97,-125.68 1.67,-136.21c7.78,0.52 16.76,0.32 24.54,-0.11c0.44,15.84 1.67,38.36 -0.46,53.72c11.64,-16.7 20.83,-36.97 32.55,-53.68z" id="svg_20"/>
   <path fill="#000000" d="m524.933,1354.28334c19.515,1.73 57.557,1.05 77.8,0.39c0.991,9.52 1.185,17.33 1.399,26.85c-15.661,0.8 -37.49,0.06 -53.543,-0.08c2.07,10.14 1.832,28.64 0.051,38.81c13.545,-0.23 26.441,-0.19 40.002,-0.95c0.533,8.82 0.615,18.55 0.876,27.46l-13.768,-0.11l-27.05,0.42c2.013,17.61 1.29,46.31 1.541,64.94c-6.858,0.33 -21.643,1.98 -26.984,-1.34c-2.118,-9.69 -2.507,-148.78 -0.324,-156.39z" id="svg_21"/>
   <path fill="#000000" d="m1313.55,716.43834c39.35,1.009 80.66,-0.805 120.15,-0.117c17.55,0.306 37.11,-0.907 54.4,0.78c1.81,8.043 3.16,23.194 0.84,31.274c-0.94,3.284 -2.4,3.573 -4.93,4.954c-55.88,0.873 -112.27,0.011 -168.15,-0.118c-13,-0.03 -12.56,-27.946 -2.31,-36.773z" id="svg_22"/>
   <path fill="#000000" d="m1123.42,716.49134c4.65,-0.536 17.38,-0.18 22.61,-0.165l41.9,0.087l61.68,-0.088c12.82,-0.019 28.65,-0.476 41.14,0.99c6.15,5.056 4.38,29.066 -0.19,35.753c-30.07,1.35 -65.06,-0.132 -95.71,0.442c-13.66,0.256 -60.45,0.8 -71.09,-1.386c-6.7,-5.022 -4.75,-28.837 -0.34,-35.633z" id="svg_23"/>
   <path fill="#000000" d="m1121.22,1568.92c7.43,-0.37 15.78,-0.06 23.3,0.06c1.25,9.09 9.01,54.8 13.52,58.8l0.75,-0.85c-0.41,-11.9 7.84,-44.81 11.96,-56.53l0.57,-1.57l21.26,0.09c-1.02,20.24 -0.26,41.76 -0.56,62.09c-0.14,9.17 0.74,23.67 -0.89,32.19c-2.89,3.4 -11.57,3.83 -15.06,1.8c-3.18,-7.02 -1.94,-23.61 -1.75,-31.99c0.72,-9.33 0.64,-15.01 0.18,-24.38c-1.82,10.94 -9.32,50.84 -15.67,58.54c-11.91,3.05 -15.99,-47.37 -20.82,-57.86c-0.4,14.51 0.63,40.96 1.72,55.2c-5.86,0.93 -11.57,0.98 -17.49,1.18c-2.1,-28.19 -3.08,-68.88 -1.02,-96.77z" id="svg_24"/>
   <path fill="#000000" d="m1497.29,1580.3c42.97,-0.41 30.72,13.47 33.23,50.5c0.93,13.78 1.93,30.81 -14.27,34.28c-24.83,0.62 -36.28,3.58 -34.99,-26.6c0.7,-16.37 -2.22,-35.49 2.53,-51.33c1.25,-4.17 9.96,-6.18 13.5,-6.85zm0.25,69.86l12.69,-1.3l2.83,-0.25c1.03,-5.14 0.64,-45.74 -0.26,-51.32c-2.58,-1.57 -6.49,-1.03 -9.71,-0.95c-4.25,0.85 -2.8,-0.24 -5,2.65c-2,14.05 -1,36.47 -0.55,51.17z" id="svg_25"/>
   <path fill="#000000" d="m1351.75,1372.96334c1.55,-0.55 0.73,-0.38 2.8,0.36c1.99,3.58 1.31,121.82 1.41,136.24l-23.21,-0.09l-1.82,-0.17c-4.41,-3.96 -3.88,-130.18 0.24,-134.83c6.07,-1.64 14.11,-1.4 20.58,-1.51z" id="svg_26"/>
   <path fill="#000000" d="m946.391,1579.4c36.035,2.63 48.843,-6.13 44.603,41.5c-0.721,8.09 -2.433,12.26 -5.239,19.79c1.186,5.89 4.209,16.93 3.483,22.13c-1.243,1.71 -2.227,3.49 -4.578,3.27c-9.383,-0.84 -10.412,-4.59 -11.443,-11.87c-1.6,-5.74 -2.716,-13.3 -9.545,-14.38c-6.993,5.63 -2.783,17.27 -4.987,22.92c-4.592,3.1 -10.455,4.06 -15.113,0.73c-1.722,-7.1 -2.683,-78.74 -0.897,-82.79l3.716,-1.3zm11.551,45.05c5.441,-0.94 7.743,-1.27 13.291,-1.47c1.26,-0.45 2.867,-0.53 3.114,-1.87c1.219,-6.62 1.798,-16.2 -0.43,-22.61c-0.984,-2.83 -10.342,-2.38 -13.127,-2.44c-1.89,3.64 -1.343,20.53 -2.848,28.39z" id="svg_27"/>
   <path fill="#000000" d="m1332.62,1579.44c4.97,-0.24 10.88,-0.19 15.92,-0.27c0.4,11.4 0.95,80.43 -0.57,87.13l-12.28,-1.29c-9.48,-14.62 -16.79,-32.4 -25.22,-47.85c1.88,13.22 1.66,33.38 2.44,47.74c-5.13,0.18 -11.28,0.74 -16.08,-0.61c-2.02,-3.17 -2.35,-15.29 -2,-19.11c1.15,-12.75 -2.6,-57.28 3.63,-66c6.71,0.34 10.06,1.48 13.42,7.51c7.73,13.91 15.33,30.04 22.08,44.4c-2.11,-22.11 -2.82,-28.5 -1.34,-51.65z" id="svg_28"/>
   <path fill="#000000" d="m859.679,1582.80334l15.201,-0.37c0.731,16.35 -0.065,35.35 0.337,51.92c0.163,6.7 0.551,29.97 -0.533,35.01l-12.24,-1.09c-3.393,-5.33 -21.694,-41.19 -22.366,-41.64c-3.046,4.17 0.517,31.76 -0.528,40.88c-3.173,2.55 -12.165,1.77 -15.378,-0.4c-2.945,-9.82 -3.993,-77.82 1.677,-84.85c12.213,1.11 13.765,8.43 19.212,18.41c5.59,10.24 9.098,21.7 15.299,31.65c-1.738,-17.26 -1.687,-32.26 -0.681,-49.52z" id="svg_29"/>
   <path fill="#000000" d="m426.05,1572.58334c22.92,-1.82 42.181,-3.77 39.857,25.84c-0.489,6.24 -9.822,4.66 -14.065,4.02c-3.463,-5.85 -7.769,-14.84 -14.723,-16.06c-4.719,3.4 -4.504,16.08 -4.822,21.87c9.538,5.15 25.497,6.45 30.063,12.33c3.953,5.09 2.85,28.89 2.11,35.85c-0.548,5.16 -3.397,8.28 -7.664,11.14c-53.838,9.45 -45.701,-29.31 -31.832,-31.77c8.358,1.77 8.07,9.27 8.384,15.97l14.506,1.3c0.237,-6.38 0.808,-12.35 -0.349,-18.6c-7.173,-10.05 -15.044,-7.35 -24.421,-9.49c-11.578,-2.65 -7.041,-35.95 -5.695,-44.5c0.669,-4.25 5.14,-6.41 8.651,-7.9z" id="svg_30"/>
   <path fill="#000000" d="m1270.03,1628.95c-1.32,-15.28 -1.4,-30.65 -0.24,-45.94c2.94,-3.64 8.47,-4.48 12.67,-2.63c3.61,8.11 0.57,63.75 1.97,76.46c0.41,3.74 0.01,5.89 -2.48,8.41c-0.87,0.03 -6.22,0.13 -6.56,-0.1c-15.06,-9.81 -19.16,-32.98 -28.42,-47.7c1.75,15.7 -0.96,32.75 1.25,47.9c-5.22,-0.04 -10.76,-0.29 -16,-0.45c-1.4,-11.38 -3.08,-79.21 1.9,-86.1c6.94,1.16 9.53,1.63 13.71,7.67c8.81,12.72 12.98,27.84 21.25,40.99l0.95,1.49z" id="svg_31"/>
   <path fill="#000000" d="m1617.84,1579.28c5.41,0.01 12.05,-0.51 16.67,2.02c6.85,9.72 19.19,68.42 23.05,83.96c-16.79,0.49 -15.89,-1.23 -21.32,-16.57c-7.11,0.31 -14.48,0.4 -21.63,0.58c-1.53,4.18 -2.86,8.5 -4.59,12.55c-1.8,4.19 -10.75,4.21 -13.84,2.31c-0.24,-9.96 6.06,-30.37 8.61,-40.64c2.07,-8.3 8.2,-40.26 13.05,-44.21zm12.9,55.01l1.98,0.1c1.19,-2.91 -4.79,-27.55 -7.61,-29.82c-0.97,5.39 -4.74,25.67 -4.74,30.02l10.37,-0.3z" id="svg_32"/>
   <path fill="#000000" d="m497.275,1582.34334c5.588,0.4 11.182,0.72 16.78,0.96c6.16,13.42 9.603,32.98 13.099,47.56c3.068,12.8 6.424,24.45 10.128,37.12c-21.845,3.98 -14.175,-1.52 -21.584,-15.6c-7.327,0.1 -14.97,-0.22 -22.325,-0.42c-1.005,5.25 -0.613,9.25 -3.016,14.01c-3.543,3.25 -10.84,3.56 -14.544,0.84c-2.331,-6.36 15.41,-65.4 17.21,-76.46c0.401,-2.46 2.534,-6 4.252,-8.01zm6.164,55.81c2.796,0.16 5.746,0.75 8.033,-0.55c-0.112,-5.23 -3.564,-26.53 -8.119,-28.88c0.893,12.02 -4.757,20.87 -5.281,29.12c1.154,0.23 5.462,0.34 5.367,0.31z" id="svg_33"/>
   <path fill="#000000" d="m1434.17,1580.4c9.65,-0.57 25.27,-2.01 31.07,6.56c4.46,6.6 10.36,18.73 -0.36,22.91c-12.19,4.75 -7.83,-9.65 -19.78,-14.43c-8.07,1.16 -7.84,8.32 -8.46,14.86c10.6,4.26 22.25,6.57 31.89,12.58c2.04,14.81 6.13,37.69 -12.39,42.19c-8.04,0.1 -21.28,1.39 -28.43,-2.13c-7.05,-3.46 -10.9,-16.56 -6.73,-23.45c3.83,-3.57 11.26,-4 15.17,-0.06c0.93,3.66 1.19,6.54 3.75,9.18c3.65,1.69 3.55,1.51 7.68,1.36c10.41,-6.07 3.55,-19.82 -3.66,-21.08c-18.64,-3.25 -25.96,-1.23 -24.61,-24.81c0.69,-12.21 0.26,-20.02 14.86,-23.68z" id="svg_34"/>
   <path fill="#000000" d="m713.046,1572.49334c9.618,-0.43 22.043,-2.14 30.855,2.7c7.087,3.89 8.696,23.27 5.12,28.83c-12.391,2.93 -12.864,-12.06 -23.036,-16.8c-11.976,1.84 -4.276,44.16 -6.477,54.17c-1.041,4.73 0.038,9.96 5.132,11.85c7.627,-0.86 9.074,-4.27 9.838,-11.13c2.456,-5.6 5.367,-7.2 11.121,-6.2c1.193,0.91 2.206,1.76 2.986,3.07c2.96,4.97 3.482,11.73 1.85,17.23c-1.296,4.36 -3.957,7.74 -7.993,9.88c-6.19,3.28 -26.181,4.69 -32.626,1.49c-3.692,-1.83 -5.972,-7.05 -7.035,-10.74c-2.883,-10.01 -3.76,-70.55 1.003,-78.19c2.277,-3.66 5.248,-5.05 9.262,-6.16z" id="svg_35"/>
   <path fill="#000000" d="m765.182,1582.42334c7.605,0.6 41.599,0.92 45.057,2.46c2.382,3.55 2.663,10.04 -0.452,12.96c-5.989,5.61 -22.262,2.86 -29.944,2.35c1.246,8.83 1.219,10.5 -0.228,18.97c7.384,-0.26 21.698,-3.88 25.805,3.01c1.424,20.83 -12.564,7.89 -23.67,13.72c-0.702,2.12 -0.269,8.78 -1.393,14c-0.365,1.19 -0.106,1.04 0.252,2.6c5.727,0.83 24.985,0.51 32.191,0.63c-0.678,5.45 -0.707,9.84 -0.805,15.28c-16.902,0.15 -33.805,0.15 -50.707,-0.01c-0.255,-11.85 0.605,-24.78 0.49,-37.02c-0.131,-14.08 -1.091,-29.98 0.342,-43.92c0.252,-2.45 1.337,-3.02 3.062,-5.03z" id="svg_36"/>
   <path fill="#000000" d="m1361.18,1579.03c18.28,1.34 29.36,2.26 47.68,0.66l0.88,17.47c-11.11,-0.1 -20.4,0.95 -31.97,0.51c0.23,5.46 0.1,11.69 0.1,17.23l18.83,0.1c0.63,0.38 3.63,2.17 3.86,2.53c12.08,18.59 -18.66,13.59 -22.81,13.43l0.27,11.91c-0.54,2.55 -0.7,2.48 -0.09,4.97c4.61,3.07 23.55,1.5 30.5,1.37c0.54,4.73 0.79,10.95 1.11,15.81c-16.71,0 -33.42,0.22 -50.13,0.66c-1.84,-26.36 0.17,-55.8 -0.1,-82.43c-0.02,-1.5 1.02,-3.06 1.87,-4.22z" id="svg_37"/>
   <path fill="#000000" d="m609.097,1582.77334c4.851,-0.19 9.039,-0.03 13.868,0.14c0.073,6.71 -0.667,24.32 0.451,29.32l1.314,0.41c6.384,-6.71 10.81,-21.51 18.309,-28.23c3.616,-3.24 12.054,-1.45 17.354,-0.99c-6.186,12.73 -14.929,27.86 -23.005,39.35c6.928,9.69 13.395,24.13 18.639,35.09c1.167,3.27 4.53,8.37 6.444,11.52c-6.687,0.04 -10.734,-0.19 -17.396,-0.86c-8.141,-10.75 -13.222,-20.72 -19.536,-32.54c-2.285,12.93 -2.045,19.06 -1.934,32.15c-4.765,0.42 -11.844,0.33 -16.826,0.39c-0.737,-26.81 0.154,-54.37 -0.03,-81.22c-0.012,-1.78 1.212,-3.3 2.348,-4.53z" id="svg_38"/>
   <path fill="#000000" d="m1003.99,1579.6c17.36,0.75 30.54,1.93 47.88,-0.2l0.06,17.98c-12.21,-0.59 -19.38,1.04 -32.18,-0.47c1.05,7.2 1.15,10.86 1.22,18.19c11.41,-0.33 14.9,-0.69 25.63,2.97l-2.25,11.47c-6.19,1.21 -16.79,1.4 -23.47,1.69c0.19,6.58 0.6,11.04 -0.83,17.48c3.05,1.82 28.03,0.59 32.8,0.21c-0.81,5.65 -0.87,11.55 -1.08,17.27c-11.44,-1.67 -36.62,-1.09 -49.2,-1.09c-0.19,-12.56 -1.17,-78.8 1.42,-85.5z" id="svg_39"/>
   <path fill="#000000" d="m557.814,1583.63334c1.488,0.03 1.232,0.2 2.757,1.03c2.806,5.38 2.623,59.42 1.7,67.78l16.004,-0.15c-0.633,-10.13 -1.115,-59.58 2.12,-66.82c4.092,-1.99 9.768,-1.79 14.513,-2.04c-0.534,6.95 -0.437,15.24 -0.523,22.32c0.451,15.04 1.543,31.76 0.482,46.77c-0.582,8.25 -4.672,11.76 -11.429,15.79c-35.061,1.06 -38.443,3.5 -37.939,-36.47c0.15,-11.91 0.232,-33.94 3.734,-44.75c1.942,-2.39 5.353,-2.67 8.581,-3.46z" id="svg_40"/>
   <path fill="#000000" d="m650.152,621.41334c34.43,-1.177 76.732,-0.259 111.51,0.013c0.418,6.778 0.919,16.414 -0.583,22.911c-35.05,0.253 -76.69,1.113 -111.302,-0.197c-0.889,-7.775 -1.919,-15.093 0.375,-22.727z" id="svg_41"/>
   <path fill="#000000" d="m1541.2,1579.84c7.17,1.08 38.24,0.15 47.28,0.03c0.33,5.73 -0.23,11.11 -0.66,16.83l-14.7,0.11c-0.49,17.59 -0.07,36.96 -0.06,54.69l-0.01,13.78l-17.09,-0.25c-1.92,-18.29 -0.98,-49.09 -0.95,-68.25c-6.12,0.23 -11.62,1.7 -15.94,-3.11c-1.53,-4.66 0.48,-9.2 2.13,-13.83z" id="svg_42"/>
   <path fill="#000000" d="m887.057,1580.41c1.121,-0.07 2.242,-0.13 3.364,-0.16c6.932,-0.22 40.706,-1.89 42.325,1.38c7.263,14.69 -6.154,15.7 -15.726,14.53l-0.043,57.26l0.007,11.84l-15.734,-0.34c-2.474,-20.22 -0.431,-46.02 -1.448,-67.82c-5.278,-0.12 -10.562,-0.54 -15.833,-0.89c-0.098,-1.78 -0.181,-3.56 -0.247,-5.34c-0.21,-5.93 -0.373,-6.49 3.335,-10.46z" id="svg_43"/>
   <path fill="#000000" d="m1206.64,1579.95l13.43,-0.28c0,27.62 0.24,55.3 0.12,82.92c-0.48,0.77 -0.97,1.55 -1.45,2.33l-14.89,0.4c-0.72,-12.67 -3.76,-78.79 2.79,-85.37z" id="svg_44"/>
   <path fill="#000000" d="m1066.85,1649.12c4.63,0.57 9.36,0.43 14.05,0.44l-1.4,16.85c-2.68,3.42 -5.01,6.68 -7.52,10.21c-2.46,1.35 -2.26,1.38 -5.04,1.17c-2.16,-3.72 0.59,-5.7 -0.12,-12.08c-4.91,-7.35 -6.81,-9.41 0.03,-16.59z" id="svg_45"/>
  </g>
 </g>

</svg>