<?xml version="1.0" standalone="no"?>
<!DOCTYPE svg PUBLIC "-//W3C//DTD SVG 20010904//EN"
 "http://www.w3.org/TR/2001/REC-SVG-20010904/DTD/svg10.dtd">
<svg version="1.0" xmlns="http://www.w3.org/2000/svg"
 width="2000.000000pt" height="1511.000000pt" viewBox="0 0 2000.000000 1511.000000"
 preserveAspectRatio="xMidYMid meet">

<g transform="translate(0.000000,1511.000000) scale(0.100000,-0.100000)"
fill="#000000" stroke="none">
<path d="M13294 13788 c-219 -287 -479 -628 -577 -756 l-179 -234 4 -90 3 -90
-85 -35 c-47 -19 -92 -42 -101 -51 -9 -10 -86 -119 -171 -243 -85 -124 -212
-295 -284 -380 l-129 -154 -44 -180 c-24 -99 -49 -185 -55 -191 -6 -7 -78 -28
-159 -47 -82 -20 -151 -37 -153 -39 -2 -2 -11 -83 -20 -178 l-16 -175 -106
-195 c-104 -191 -110 -200 -322 -455 -119 -143 -267 -313 -330 -378 l-113
-118 -8 -222 c-4 -122 -8 -232 -9 -243 0 -20 -7 -22 -87 -28 -142 -11 -134 -6
-203 -112 l-63 -94 7 -183 6 -182 -113 -209 -112 -209 -103 -62 c-57 -34 -109
-68 -116 -76 -7 -8 -43 -97 -81 -199 l-68 -185 -178 -235 -179 -236 -36 -152
-37 -152 -158 -91 -159 -90 6 -37 c3 -20 14 -107 24 -192 21 -179 27 -160 -77
-268 -38 -39 -64 -68 -58 -65 5 4 -3 -7 -20 -23 -16 -16 -33 -27 -37 -26 -5 1
-8 -7 -8 -19 0 -11 -4 -18 -9 -15 -5 3 -8 14 -6 24 1 9 0 11 -2 4 -3 -7 -8
-10 -12 -8 -4 3 -41 -34 -83 -82 l-74 -87 -23 -135 c-42 -247 -26 -214 -168
-337 -70 -59 -131 -111 -137 -115 -7 -5 -3 -47 13 -133 27 -146 38 -117 -105
-277 -86 -96 -115 -139 -197 -288 l-97 -175 0 -145 0 -145 -111 -143 -110
-142 -9 -178 c-5 -97 -10 -182 -10 -187 0 -6 -38 -21 -86 -35 -47 -13 -91 -28
-98 -34 -7 -6 -31 -74 -52 -151 -28 -103 -137 -389 -413 -1081 l-376 -941 87
81 c48 44 201 187 341 316 l253 235 62 186 62 185 121 140 120 139 -3 109 -3
109 140 77 c77 43 143 84 147 92 4 7 16 89 27 183 l21 169 170 171 170 170 59
175 c32 96 62 182 66 191 4 10 76 44 176 84 136 54 169 70 165 83 -2 10 -10
64 -16 122 l-12 105 47 175 c26 96 53 198 61 226 l15 51 115 18 c63 10 121 23
128 29 8 6 75 131 150 277 134 262 138 268 252 400 63 74 151 176 195 226 85
98 113 121 125 101 4 -7 3 -8 -4 -4 -7 4 -12 2 -12 -4 0 -6 -4 -9 -9 -5 -16 9
-20 -9 -5 -23 12 -11 14 -10 14 4 0 10 3 15 6 11 7 -7 52 32 67 58 6 11 36
127 67 257 l57 237 180 185 179 186 33 288 c19 158 36 292 39 297 3 6 72 100
153 210 l148 200 79 42 79 43 6 82 c4 46 7 115 7 153 0 39 3 79 6 90 3 11 52
56 109 100 l104 80 72 175 c40 96 105 255 145 353 40 98 74 180 76 181 1 2 50
30 108 63 163 94 170 98 170 106 0 4 -7 7 -16 7 -8 0 -13 -3 -11 -7 3 -5 -9
-9 -26 -9 -18 -1 -24 1 -14 3 9 2 15 9 12 14 -3 5 1 6 9 3 20 -8 20 3 1 36
-17 30 -21 64 -4 40 8 -12 9 -10 7 10 -2 14 -8 30 -14 35 -31 27 -23 67 41
184 l63 116 5 183 c6 214 -20 154 203 468 l142 201 26 127 26 127 105 155 105
155 32 182 32 182 77 86 c72 79 82 95 124 205 25 65 140 301 254 524 198 385
764 1474 913 1758 38 72 68 132 66 132 -3 0 -184 -235 -404 -522z m-4741
-7603 c-3 -9 -8 -14 -10 -11 -3 3 -2 9 2 15 9 16 15 13 8 -4z m1157 -129 c0
-2 -6 -9 -14 -15 -11 -9 -16 -9 -22 0 -4 7 -3 9 4 5 6 -3 13 -2 17 4 6 10 15
14 15 6z"/>
<path d="M10520 13113 c-254 -226 -382 -334 -422 -354 l-58 -29 0 -133 0 -133
-102 -48 -103 -47 -86 -110 -87 -111 -12 -94 -13 -95 -41 5 c-22 3 -63 7 -90
8 l-50 3 -74 -187 -75 -187 -118 -147 c-116 -145 -119 -150 -160 -269 l-41
-120 -92 -66 -91 -65 -20 -131 -20 -131 -121 -86 -121 -85 -6 -98 c-4 -54 -7
-119 -7 -145 0 -44 -3 -50 -104 -162 -58 -63 -160 -165 -228 -225 l-124 -110
17 -198 c10 -109 20 -224 24 -255 l6 -58 -138 -91 c-83 -55 -141 -100 -145
-113 -3 -11 -16 -104 -28 -206 l-22 -185 -112 -110 -113 -110 -68 -170 c-37
-93 -72 -175 -76 -181 -5 -6 -59 -21 -120 -34 -70 -15 -113 -29 -116 -38 -3
-8 3 -80 15 -160 12 -80 19 -148 17 -151 -1 -3 -51 -31 -110 -61 l-106 -55 5
-40 c3 -22 8 -68 12 -102 l6 -62 -58 -26 c-33 -15 -68 -30 -80 -35 l-20 -8 17
-129 c10 -70 20 -143 23 -161 5 -31 1 -36 -112 -126 l-117 -94 -29 -102 c-20
-71 -32 -98 -38 -88 -6 9 -7 6 -3 -9 6 -22 -16 -76 -36 -88 -6 -4 -6 1 2 12 9
15 9 25 1 39 -10 17 -11 17 -12 2 0 -29 -1 -32 -12 -45 -7 -9 -6 -18 3 -30 12
-16 12 -17 -2 -5 -13 10 -20 8 -41 -10 -13 -13 -42 -36 -64 -53 -21 -16 -55
-44 -75 -62 l-37 -33 30 -100 29 -101 -98 -135 c-54 -74 -115 -159 -136 -188
-33 -46 -58 -121 -222 -662 -102 -335 -210 -689 -241 -788 -30 -98 -52 -181
-49 -184 3 -3 5 1 5 8 0 13 106 183 493 795 l216 340 127 90 127 90 252 335
c233 311 254 342 289 432 34 89 43 102 98 150 l61 52 -6 64 -6 64 100 119 100
119 46 154 46 154 118 52 c65 28 122 57 127 63 5 7 22 104 37 217 15 113 31
210 36 215 4 6 65 31 135 55 103 36 130 50 144 72 9 16 20 25 25 20 5 -4 5 -2
2 4 -7 13 14 74 25 74 10 0 10 -3 -2 -35 -7 -17 -7 -24 0 -20 6 3 10 13 10 22
0 8 6 13 13 10 19 -7 18 24 -1 46 -10 11 -11 17 -4 17 7 0 11 3 11 8 -4 22 2
42 12 39 6 -1 14 4 17 12 3 8 0 11 -7 7 -8 -5 -8 0 1 19 11 25 13 25 25 9 7
-10 13 -22 13 -28 0 -5 -6 -1 -14 9 -13 19 -14 18 -13 -8 2 -32 17 -30 34 4
44 90 53 111 48 120 -4 5 0 9 7 9 9 0 9 3 -2 10 -13 8 -12 10 3 10 10 0 16 4
13 9 -4 5 -2 11 3 13 5 1 11 10 13 18 2 8 7 18 12 21 5 4 9 18 9 33 0 14 3 23
7 21 18 -11 30 65 30 186 0 92 -3 129 -12 132 -8 3 -6 6 4 6 10 1 42 34 72 74
55 71 56 72 135 96 94 28 77 10 286 297 160 220 148 191 149 359 0 28 5 53 11
57 6 5 4 8 -5 8 -13 0 -13 1 0 11 13 9 13 10 0 6 -8 -2 -17 -17 -20 -33 -3
-16 -8 -24 -11 -19 -7 11 -5 30 7 59 6 15 4 17 -6 11 -10 -6 -11 -3 -6 16 4
13 7 33 7 44 -1 11 4 64 10 118 l11 98 158 125 158 125 136 243 136 243 0 102
0 102 91 119 91 119 -7 47 c-3 26 -9 52 -11 58 -3 7 23 47 57 90 69 88 87 137
200 545 32 118 61 216 63 218 3 3 28 -2 57 -11 29 -8 54 -14 55 -13 1 1 5 59
8 130 l7 127 78 128 c74 121 79 131 91 217 13 89 13 89 91 193 l78 104 -26 34
c-32 43 -43 17 138 327 164 279 151 257 147 256 -2 0 -167 -147 -368 -326z
m-1967 -4318 c-3 -9 -8 -14 -10 -11 -3 3 -2 9 2 15 9 16 15 13 8 -4z m-26 -40
c0 -8 -4 -12 -9 -9 -5 3 -6 10 -3 15 9 13 12 11 12 -6z m-6 -48 c-10 -9 -11
-8 -5 6 3 10 9 15 12 12 3 -3 0 -11 -7 -18z m-56 -43 c-14 -22 -15 -28 -4 -36
11 -6 9 -8 -6 -6 -11 2 -23 7 -27 13 -9 12 11 37 23 29 5 -3 9 2 9 10 0 9 5
16 11 16 7 0 4 -11 -6 -26z m-26 -89 c0 -5 -6 1 -14 15 -8 14 -14 30 -14 35 0
6 6 -1 14 -15 8 -14 14 -29 14 -35z m-138 -488 c-10 -9 -11 -8 -5 6 3 10 9 15
12 12 3 -3 0 -11 -7 -18z m16 -29 c2 -17 0 -19 -7 -8 -5 8 -6 18 -4 22 8 12
10 10 11 -14z m-72 -139 c11 -17 -1 -21 -15 -4 -8 9 -8 15 -2 15 6 0 14 -5 17
-11z"/>
<path d="M13361 9875 c-725 -967 -740 -988 -776 -1083 -35 -91 -41 -101 -102
-152 l-65 -55 5 -67 6 -67 -97 -118 c-89 -108 -100 -126 -120 -198 -13 -44
-32 -110 -43 -146 l-19 -66 -121 -54 c-66 -29 -124 -58 -128 -64 -4 -5 -20
-106 -36 -223 l-29 -212 -105 -40 c-59 -22 -119 -46 -134 -53 -25 -11 -45 -51
-158 -307 l-129 -295 0 -139 0 -138 -65 -83 c-63 -81 -65 -83 -147 -111 l-83
-29 -63 -85 c-34 -47 -71 -95 -81 -107 -10 -12 -17 -24 -15 -25 2 -2 -14 -23
-35 -46 -21 -23 -35 -44 -32 -48 3 -4 -3 -2 -14 4 -23 12 -38 -1 -94 -79 l-33
-47 -24 -253 c-23 -233 -27 -256 -47 -272 -12 -11 -81 -68 -153 -127 l-131
-108 -137 -250 -136 -250 0 -104 0 -104 -94 -127 -93 -127 13 -57 13 -57 -54
-73 c-50 -66 -59 -86 -99 -225 -25 -84 -65 -234 -90 -332 -26 -99 -47 -181
-49 -182 -1 -1 -26 2 -56 8 -29 5 -56 7 -59 3 -3 -3 -8 -67 -11 -143 l-6 -137
-73 -126 c-69 -120 -73 -130 -84 -218 l-11 -93 -79 -110 c-81 -114 -84 -124
-44 -158 9 -7 16 -20 16 -30 0 -10 -52 -136 -116 -281 -135 -310 -132 -301
-108 -269 10 14 127 156 260 315 194 232 251 295 288 314 l46 24 0 136 0 136
104 52 c104 52 105 53 183 155 l78 103 15 109 15 109 75 -2 c41 -1 83 -3 93
-4 16 -2 31 30 87 179 l67 182 111 143 c110 142 112 146 154 273 l43 129 80
60 c44 33 84 63 89 68 4 4 17 67 27 140 11 76 25 137 32 141 6 3 59 42 117 85
l105 78 6 142 7 142 110 128 c61 71 160 173 221 228 l111 99 -5 46 c-21 177
-43 466 -35 474 5 5 69 50 142 100 l133 91 25 202 25 202 115 118 116 118 68
175 c38 96 74 180 80 186 6 6 57 21 114 34 56 13 102 25 102 26 0 1 -9 62 -20
136 -11 73 -20 143 -20 155 0 16 16 29 73 58 39 21 87 46 106 58 l33 20 -7 81
c-3 45 -9 90 -11 102 -4 17 7 26 76 57 71 33 80 39 75 59 -2 13 -12 75 -20
138 -9 63 -17 123 -19 132 -3 12 33 48 118 118 l122 100 28 97 c61 220 48 194
152 284 52 44 94 88 94 97 0 10 -11 54 -25 100 l-24 84 140 196 c123 172 150
217 216 362 103 226 536 1154 615 1318 35 72 62 132 61 132 -2 0 -336 -443
-742 -985z m-2594 -4030 c0 -8 -4 -12 -9 -9 -4 3 -8 9 -8 15 0 5 4 9 8 9 5 0
9 -7 9 -15z"/>
<path d="M11514 9438 c0 -12 7 -23 15 -26 10 -3 12 0 8 12 -4 10 -7 22 -7 27
0 5 -4 9 -9 9 -4 0 -8 -10 -7 -22z"/>
<path d="M14700 7974 c-133 -163 -265 -335 -293 -382 -34 -56 -68 -98 -102
-125 -35 -28 -65 -66 -103 -131 -42 -72 -75 -112 -158 -191 l-104 -100 -7 -87
c-4 -54 -10 -88 -17 -88 -14 0 -75 37 -102 61 l-21 20 -20 -53 c-11 -29 -32
-92 -46 -139 -24 -77 -35 -96 -117 -197 l-90 -111 0 -58 c0 -118 -2 -122 -112
-209 -113 -89 -101 -70 -233 -366 -48 -109 -92 -195 -96 -192 -5 3 -7 -1 -4
-8 3 -7 -9 -40 -25 -73 -16 -33 -30 -53 -30 -44 0 9 -8 20 -17 23 -10 4 -14 4
-10 0 4 -4 0 -15 -9 -25 -8 -9 -16 -26 -17 -38 -1 -13 -65 -82 -169 -182 -92
-88 -169 -168 -172 -177 -3 -9 -26 -96 -52 -194 l-46 -176 -58 -16 -57 -16
-31 -103 c-24 -77 -36 -146 -49 -282 l-18 -180 -57 -30 c-31 -17 -59 -33 -63
-36 -3 -4 2 -41 12 -84 l17 -78 -57 -51 c-49 -44 -70 -77 -151 -230 l-94 -179
20 -51 c43 -108 44 -94 -18 -217 -61 -123 -62 -127 -38 -285 l6 -41 -51 -13
c-47 -11 -51 -14 -56 -48 -12 -74 -23 -99 -82 -177 -57 -77 -65 -94 -198 -460
-76 -209 -140 -387 -143 -395 -3 -8 26 30 64 85 38 56 141 202 228 327 l160
225 135 53 c75 29 141 56 147 61 6 5 16 58 24 119 l13 111 72 67 c57 53 85 71
133 87 l62 20 208 335 209 335 87 3 88 3 -7 137 -7 137 106 55 c102 53 106 56
101 85 -2 17 -7 80 -10 140 -3 61 -8 135 -10 165 l-5 55 108 125 109 125 111
39 c62 21 112 44 112 50 0 6 -25 86 -55 176 l-55 165 110 110 109 110 11 120
c6 66 13 130 16 142 2 12 31 53 65 90 l60 68 -6 65 c-3 36 -8 88 -10 115 -13
135 -11 148 37 236 25 46 67 127 94 179 29 56 111 180 203 305 l155 210 17
116 17 116 160 344 c88 189 213 454 277 589 132 277 147 310 141 310 -3 0
-113 -133 -246 -296z"/>
<path d="M8264 7978 c-4 -6 -2 -14 4 -16 7 -2 12 -8 12 -13 0 -6 -4 -7 -10 -4
-5 3 -10 2 -10 -4 0 -12 20 -25 21 -14 8 51 -1 78 -17 51z"/>
<path d="M8205 7789 c-4 -6 -5 -12 -2 -15 2 -3 7 2 10 11 7 17 1 20 -8 4z"/>
<path d="M8179 7733 c-13 -16 -12 -17 4 -4 9 7 17 15 17 17 0 8 -8 3 -21 -13z"/>
<path d="M8609 6253 c-13 -16 -12 -17 4 -4 9 7 17 15 17 17 0 8 -8 3 -21 -13z"/>
<path d="M9607 5986 c-3 -8 0 -20 8 -26 12 -10 13 -8 10 10 -6 29 -11 34 -18
16z"/>
<path d="M9576 5948 c3 -5 10 -6 15 -3 13 9 11 12 -6 12 -8 0 -12 -4 -9 -9z"/>
<path d="M10786 5908 c5 -8 2 -9 -9 -5 -10 3 -17 2 -17 -3 0 -12 20 -13 38 -1
11 7 10 9 -3 14 -11 5 -14 3 -9 -5z"/>
<path d="M13010 5535 c7 -9 15 -13 17 -11 7 7 -7 26 -19 26 -6 0 -6 -6 2 -15z"/>
</g>
</svg>
