<?xml version="1.0" encoding="UTF-8"?>
<svg version="1.1" xmlns="http://www.w3.org/2000/svg" width="100" height="100">
<path d="M0 0 C5.13522283 1.29683927 9.39395738 -0.25615521 14.328125 -1.78515625 C25.40173197 -4.79980397 35.6640778 -3.29665923 45.80078125 2.2734375 C52.66071003 6.74633415 52.66071003 6.74633415 55.078125 9.77734375 C55.44140625 11.96875 55.44140625 11.96875 55.390625 14.33984375 C55.38675781 15.12488281 55.38289063 15.90992187 55.37890625 16.71875 C55.078125 18.77734375 55.078125 18.77734375 53.078125 20.77734375 C50.04548125 20.97627852 47.10411934 21.04997449 44.0703125 21.03613281 C42.67017914 21.04138977 42.67017914 21.04138977 41.24176025 21.04675293 C38.14547363 21.05558077 35.04941409 21.04971736 31.953125 21.04296875 C29.80843054 21.0443151 27.66373638 21.04625537 25.51904297 21.04876709 C21.01982727 21.05171978 16.52069087 21.04741603 12.02148438 21.03808594 C6.24402555 21.02669136 0.46675253 21.03325005 -5.31069946 21.04523087 C-9.74065561 21.05244554 -14.17056745 21.05016334 -18.6005249 21.04497528 C-20.73126243 21.0436377 -22.86200393 21.04529028 -24.99273682 21.04993439 C-27.96662101 21.05499315 -30.94020105 21.04729851 -33.9140625 21.03613281 C-34.80140076 21.04018127 -35.68873901 21.04422974 -36.60296631 21.04840088 C-42.6933474 21.00587135 -42.6933474 21.00587135 -44.921875 18.77734375 C-45.69914036 15.64916921 -45.65281715 12.91215901 -44.921875 9.77734375 C-39.97926359 2.64586157 -30.49529065 -0.89886464 -22.33984375 -2.8359375 C-14.17932537 -4.14109311 -7.73769545 -2.83016693 0 0 Z M13.078125 6.77734375 C13.738125 9.08734375 14.398125 11.39734375 15.078125 13.77734375 C25.638125 13.77734375 36.198125 13.77734375 47.078125 13.77734375 C40.36291121 7.06212996 34.27139529 4.57969021 24.765625 4.40234375 C20.55770675 4.54461407 16.96976034 5.04772804 13.078125 6.77734375 Z " fill="#FFFFFF" transform="translate(44.921875,59.22265625)"/>
<path d="M0 0 C4.91957021 2.64080825 8.16838994 5.99735731 9.9296875 11.28125 C10.88284432 25.01037424 10.88284432 25.01037424 6.9296875 30.28125 C1.33676526 35.72502764 -2.41582087 36.63589825 -10.0859375 36.5625 C-15.38838659 36.06279276 -17.94295905 33.5304795 -21.3828125 29.71875 C-25.20296799 24.20074763 -24.63138536 17.74138056 -24.0703125 11.28125 C-22.51092244 6.35730638 -19.32693587 3.11899891 -15.0703125 0.28125 C-10.22916635 -1.33246538 -4.88419867 -1.69564633 0 0 Z " fill="#FFFFFF" transform="translate(37.0703125,13.71875)"/>
<path d="M0 0 C4.91957021 2.64080825 8.16838994 5.99735731 9.9296875 11.28125 C10.88284432 25.01037424 10.88284432 25.01037424 6.9296875 30.28125 C1.33676526 35.72502764 -2.41582087 36.63589825 -10.0859375 36.5625 C-15.38838659 36.06279276 -17.94295905 33.5304795 -21.3828125 29.71875 C-25.20296799 24.20074763 -24.63138536 17.74138056 -24.0703125 11.28125 C-22.51092244 6.35730638 -19.32693587 3.11899891 -15.0703125 0.28125 C-10.22916635 -1.33246538 -4.88419867 -1.69564633 0 0 Z M-16.0703125 12.28125 C-17.32672876 16.52165486 -17.21880703 18.78626822 -15.9453125 23.03125 C-13.91812882 26.54503504 -12.85130106 27.87437053 -9.0703125 29.28125 C-5.11027855 29.28125 -3.42665525 28.55048674 -0.2578125 26.15625 C2.41584818 22.64229597 2.9296875 20.68515132 2.9296875 16.28125 C1.83648932 12.18175682 0.55055071 9.6951588 -3.0703125 7.28125 C-9.30792011 6.57700398 -12.2412698 6.82776494 -16.0703125 12.28125 Z " fill="#FFFFFF" transform="translate(77.0703125,13.71875)"/>
</svg>
